<mxfile host="65bd71144e">
    <diagram id="lmWwRQkVpCRroSTJukyA" name="moniteur">
        <mxGraphModel dx="898" dy="666" grid="1" gridSize="10" guides="1" tooltips="1" connect="1" arrows="1" fold="1" page="1" pageScale="1" pageWidth="1600" pageHeight="1200" math="0" shadow="0">
            <root>
                <mxCell id="0"/>
                <mxCell id="1" parent="0"/>
                <mxCell id="OrLtFnOgsqkmbgE3haa2-10" value="" style="rounded=0;whiteSpace=wrap;html=1;" parent="1" vertex="1">
                    <mxGeometry width="1380" height="950" as="geometry"/>
                </mxCell>
                <mxCell id="YX-Q4lQZBypjuz9mWShq-77" value="" style="rounded=0;whiteSpace=wrap;html=1;" parent="1" vertex="1">
                    <mxGeometry x="360" y="40" width="1000" height="760" as="geometry"/>
                </mxCell>
                <mxCell id="aF5qxgkO2dywwEZLC3lP-16" style="edgeStyle=none;html=1;exitX=1;exitY=0.5;exitDx=0;exitDy=0;entryX=0;entryY=0.461;entryDx=0;entryDy=0;entryPerimeter=0;" parent="1" source="zwP6XSWxPuO-pKP-XsMT-1" target="YX-Q4lQZBypjuz9mWShq-77" edge="1">
                    <mxGeometry relative="1" as="geometry">
                        <mxPoint x="320" y="390" as="targetPoint"/>
                    </mxGeometry>
                </mxCell>
                <mxCell id="zwP6XSWxPuO-pKP-XsMT-1" value="Bouton de réinitialisation" style="ellipse;whiteSpace=wrap;html=1;" parent="1" vertex="1">
                    <mxGeometry x="20" y="350" width="120" height="80" as="geometry"/>
                </mxCell>
                <mxCell id="aF5qxgkO2dywwEZLC3lP-7" style="edgeStyle=none;html=1;exitX=1;exitY=0.5;exitDx=0;exitDy=0;" parent="1" source="usW-4bekP8bPHleeqF2R-1" edge="1">
                    <mxGeometry relative="1" as="geometry">
                        <mxPoint x="360" y="450" as="targetPoint"/>
                    </mxGeometry>
                </mxCell>
                <mxCell id="usW-4bekP8bPHleeqF2R-1" value="`itoa_custom`&lt;br&gt;Conversion compabilité" style="shape=parallelogram;perimeter=parallelogramPerimeter;whiteSpace=wrap;html=1;fixedSize=1;" parent="1" vertex="1">
                    <mxGeometry x="150" y="420" width="120" height="60" as="geometry"/>
                </mxCell>
                <mxCell id="aF5qxgkO2dywwEZLC3lP-6" style="edgeStyle=none;html=1;exitX=1;exitY=0.5;exitDx=0;exitDy=0;entryX=0;entryY=0.592;entryDx=0;entryDy=0;entryPerimeter=0;" parent="1" source="usW-4bekP8bPHleeqF2R-2" target="YX-Q4lQZBypjuz9mWShq-77" edge="1">
                    <mxGeometry relative="1" as="geometry">
                        <mxPoint x="320" y="490" as="targetPoint"/>
                    </mxGeometry>
                </mxCell>
                <mxCell id="usW-4bekP8bPHleeqF2R-2" value="`reset`&lt;br&gt;Nouvelle partie" style="shape=parallelogram;perimeter=parallelogramPerimeter;whiteSpace=wrap;html=1;fixedSize=1;" parent="1" vertex="1">
                    <mxGeometry x="20" y="460" width="120" height="60" as="geometry"/>
                </mxCell>
                <mxCell id="aF5qxgkO2dywwEZLC3lP-8" style="edgeStyle=none;html=1;exitX=1;exitY=0.5;exitDx=0;exitDy=0;entryX=0;entryY=0.658;entryDx=0;entryDy=0;entryPerimeter=0;" parent="1" source="usW-4bekP8bPHleeqF2R-3" target="YX-Q4lQZBypjuz9mWShq-77" edge="1">
                    <mxGeometry relative="1" as="geometry">
                        <mxPoint x="320" y="540" as="targetPoint"/>
                    </mxGeometry>
                </mxCell>
                <mxCell id="usW-4bekP8bPHleeqF2R-3" value="`LED_OUT`&lt;br&gt;Désactive DELs" style="shape=parallelogram;perimeter=parallelogramPerimeter;whiteSpace=wrap;html=1;fixedSize=1;" parent="1" vertex="1">
                    <mxGeometry x="150" y="510" width="120" height="60" as="geometry"/>
                </mxCell>
                <mxCell id="aF5qxgkO2dywwEZLC3lP-9" style="edgeStyle=none;html=1;exitX=1;exitY=0.5;exitDx=0;exitDy=0;" parent="1" source="usW-4bekP8bPHleeqF2R-4" edge="1">
                    <mxGeometry relative="1" as="geometry">
                        <mxPoint x="360" y="580" as="targetPoint"/>
                    </mxGeometry>
                </mxCell>
                <mxCell id="usW-4bekP8bPHleeqF2R-4" value="`DEL_VERTE`&lt;br&gt;Active DELs vertes seulement" style="shape=parallelogram;perimeter=parallelogramPerimeter;whiteSpace=wrap;html=1;fixedSize=1;" parent="1" vertex="1">
                    <mxGeometry x="20" y="550" width="120" height="60" as="geometry"/>
                </mxCell>
                <mxCell id="aF5qxgkO2dywwEZLC3lP-10" style="edgeStyle=none;html=1;exitX=1;exitY=0.5;exitDx=0;exitDy=0;" parent="1" source="usW-4bekP8bPHleeqF2R-5" edge="1">
                    <mxGeometry relative="1" as="geometry">
                        <mxPoint x="360" y="630" as="targetPoint"/>
                    </mxGeometry>
                </mxCell>
                <mxCell id="usW-4bekP8bPHleeqF2R-5" value="`DEL_ROUGE`&lt;br&gt;Active DELs &lt;br&gt;rouges seulement" style="shape=parallelogram;perimeter=parallelogramPerimeter;whiteSpace=wrap;html=1;fixedSize=1;" parent="1" vertex="1">
                    <mxGeometry x="150" y="600" width="120" height="60" as="geometry"/>
                </mxCell>
                <mxCell id="aF5qxgkO2dywwEZLC3lP-11" style="edgeStyle=none;html=1;exitX=1;exitY=0.5;exitDx=0;exitDy=0;" parent="1" source="usW-4bekP8bPHleeqF2R-6" edge="1">
                    <mxGeometry relative="1" as="geometry">
                        <mxPoint x="360" y="670" as="targetPoint"/>
                    </mxGeometry>
                </mxCell>
                <mxCell id="usW-4bekP8bPHleeqF2R-6" value="`DEL_JAUNE`&lt;br&gt;Active DELs &lt;br&gt;vertes et rouges" style="shape=parallelogram;perimeter=parallelogramPerimeter;whiteSpace=wrap;html=1;fixedSize=1;" parent="1" vertex="1">
                    <mxGeometry x="20" y="640" width="120" height="60" as="geometry"/>
                </mxCell>
                <mxCell id="HXoz_swLZMIebrg_eW4X-6" value="" style="group" parent="1" vertex="1" connectable="0">
                    <mxGeometry x="20" y="20" width="280" height="180" as="geometry"/>
                </mxCell>
                <mxCell id="HXoz_swLZMIebrg_eW4X-1" value="`init_nrf`&lt;br&gt;Initialisation du NRF24L01" style="shape=parallelogram;perimeter=parallelogramPerimeter;whiteSpace=wrap;html=1;fixedSize=1;fontFamily=Helvetica;fontSize=12;fontColor=default;align=center;strokeColor=default;fillColor=default;" parent="HXoz_swLZMIebrg_eW4X-6" vertex="1">
                    <mxGeometry x="160" y="120" width="120" height="60" as="geometry"/>
                </mxCell>
                <mxCell id="HXoz_swLZMIebrg_eW4X-2" style="edgeStyle=none;html=1;exitX=0.5;exitY=1;exitDx=0;exitDy=0;entryX=0.5;entryY=0;entryDx=0;entryDy=0;" parent="HXoz_swLZMIebrg_eW4X-6" source="HXoz_swLZMIebrg_eW4X-3" target="HXoz_swLZMIebrg_eW4X-1" edge="1">
                    <mxGeometry relative="1" as="geometry">
                        <Array as="points">
                            <mxPoint x="60" y="90"/>
                            <mxPoint x="220" y="90"/>
                        </Array>
                    </mxGeometry>
                </mxCell>
                <mxCell id="HXoz_swLZMIebrg_eW4X-3" value="`writing`&amp;nbsp;&lt;br&gt;Écriture SPI d'un tableau indéfinie" style="shape=parallelogram;perimeter=parallelogramPerimeter;whiteSpace=wrap;html=1;fixedSize=1;fontFamily=Helvetica;fontSize=12;fontColor=default;align=center;strokeColor=default;fillColor=default;" parent="HXoz_swLZMIebrg_eW4X-6" vertex="1">
                    <mxGeometry width="120" height="60" as="geometry"/>
                </mxCell>
                <mxCell id="HXoz_swLZMIebrg_eW4X-4" style="edgeStyle=none;html=1;exitX=0.5;exitY=1;exitDx=0;exitDy=0;entryX=0.5;entryY=0;entryDx=0;entryDy=0;" parent="HXoz_swLZMIebrg_eW4X-6" source="HXoz_swLZMIebrg_eW4X-5" target="HXoz_swLZMIebrg_eW4X-1" edge="1">
                    <mxGeometry relative="1" as="geometry"/>
                </mxCell>
                <mxCell id="HXoz_swLZMIebrg_eW4X-5" value="`writing_2`&amp;nbsp;&lt;br&gt;Écriture SPI d'une commande et d'une donnée" style="shape=parallelogram;perimeter=parallelogramPerimeter;whiteSpace=wrap;html=1;fixedSize=1;fontFamily=Helvetica;fontSize=12;fontColor=default;align=center;strokeColor=default;fillColor=default;" parent="HXoz_swLZMIebrg_eW4X-6" vertex="1">
                    <mxGeometry x="160" width="120" height="60" as="geometry"/>
                </mxCell>
                <mxCell id="aF5qxgkO2dywwEZLC3lP-12" style="edgeStyle=none;html=1;exitX=1;exitY=0.5;exitDx=0;exitDy=0;entryX=0;entryY=0.895;entryDx=0;entryDy=0;entryPerimeter=0;" parent="1" source="RYyspYiD6lcVDH-WO6xL-1" target="YX-Q4lQZBypjuz9mWShq-77" edge="1">
                    <mxGeometry relative="1" as="geometry">
                        <mxPoint x="320" y="720" as="targetPoint"/>
                    </mxGeometry>
                </mxCell>
                <mxCell id="RYyspYiD6lcVDH-WO6xL-1" value="`nrf_read`&lt;br&gt;Lecture d'un byte &lt;br&gt;du NRF" style="shape=parallelogram;perimeter=parallelogramPerimeter;whiteSpace=wrap;html=1;fixedSize=1;" parent="1" vertex="1">
                    <mxGeometry x="150" y="690" width="120" height="60" as="geometry"/>
                </mxCell>
                <mxCell id="aF5qxgkO2dywwEZLC3lP-5" style="edgeStyle=none;html=1;exitX=0.5;exitY=1;exitDx=0;exitDy=0;entryX=0;entryY=0.5;entryDx=0;entryDy=0;" parent="1" source="RYyspYiD6lcVDH-WO6xL-2" target="RYyspYiD6lcVDH-WO6xL-3" edge="1">
                    <mxGeometry relative="1" as="geometry">
                        <Array as="points">
                            <mxPoint x="80" y="820"/>
                        </Array>
                    </mxGeometry>
                </mxCell>
                <mxCell id="RYyspYiD6lcVDH-WO6xL-2" value="`lcd_control`&lt;br&gt;Envoi des textes&lt;br&gt;vers l'écran" style="shape=parallelogram;perimeter=parallelogramPerimeter;whiteSpace=wrap;html=1;fixedSize=1;" parent="1" vertex="1">
                    <mxGeometry x="20" y="730" width="120" height="60" as="geometry"/>
                </mxCell>
                <mxCell id="aF5qxgkO2dywwEZLC3lP-13" style="edgeStyle=none;html=1;exitX=1;exitY=0.5;exitDx=0;exitDy=0;entryX=0;entryY=0.948;entryDx=0;entryDy=0;entryPerimeter=0;" parent="1" source="RYyspYiD6lcVDH-WO6xL-3" target="YX-Q4lQZBypjuz9mWShq-77" edge="1">
                    <mxGeometry relative="1" as="geometry">
                        <mxPoint x="320" y="820" as="targetPoint"/>
                        <Array as="points">
                            <mxPoint x="280" y="820"/>
                            <mxPoint x="280" y="760"/>
                        </Array>
                    </mxGeometry>
                </mxCell>
                <mxCell id="RYyspYiD6lcVDH-WO6xL-3" value="`printing`&lt;br&gt;Sélection&lt;br&gt;des textes" style="shape=parallelogram;perimeter=parallelogramPerimeter;whiteSpace=wrap;html=1;fixedSize=1;" parent="1" vertex="1">
                    <mxGeometry x="120" y="790" width="120" height="60" as="geometry"/>
                </mxCell>
                <mxCell id="aF5qxgkO2dywwEZLC3lP-14" style="edgeStyle=none;html=1;exitX=1;exitY=0.5;exitDx=0;exitDy=0;entryX=-0.001;entryY=0.974;entryDx=0;entryDy=0;entryPerimeter=0;" parent="1" source="RYyspYiD6lcVDH-WO6xL-4" target="YX-Q4lQZBypjuz9mWShq-77" edge="1">
                    <mxGeometry relative="1" as="geometry">
                        <mxPoint x="320" y="900" as="targetPoint"/>
                        <Array as="points">
                            <mxPoint x="320" y="900"/>
                            <mxPoint x="320" y="780"/>
                        </Array>
                    </mxGeometry>
                </mxCell>
                <mxCell id="RYyspYiD6lcVDH-WO6xL-4" value="`Ciz_init`&lt;br&gt;Initialisation de&lt;br&gt;&amp;nbsp;l'écran I²C" style="shape=parallelogram;perimeter=parallelogramPerimeter;whiteSpace=wrap;html=1;fixedSize=1;" parent="1" vertex="1">
                    <mxGeometry x="20" y="870" width="120" height="60" as="geometry"/>
                </mxCell>
                <mxCell id="aF5qxgkO2dywwEZLC3lP-3" style="edgeStyle=none;html=1;exitX=0.5;exitY=1;exitDx=0;exitDy=0;entryX=0.5;entryY=0;entryDx=0;entryDy=0;" parent="1" source="-4wueqpYrYLqKAW2fhen-1" target="aF5qxgkO2dywwEZLC3lP-1" edge="1">
                    <mxGeometry relative="1" as="geometry"/>
                </mxCell>
                <mxCell id="-4wueqpYrYLqKAW2fhen-1" value="Initialisation&lt;br&gt;System ,DELs , NRF&lt;br&gt;&amp;nbsp;, écran I²C" style="rounded=1;whiteSpace=wrap;html=1;shadow=0;glass=0;sketch=0;" parent="1" vertex="1">
                    <mxGeometry x="380" y="60" width="120" height="60" as="geometry"/>
                </mxCell>
                <mxCell id="3KBwBZdhE7WF4Y3FgFT6-2" style="edgeStyle=none;html=1;exitX=1;exitY=0.5;exitDx=0;exitDy=0;entryX=0.5;entryY=0;entryDx=0;entryDy=0;" parent="1" source="aF5qxgkO2dywwEZLC3lP-1" target="3KBwBZdhE7WF4Y3FgFT6-1" edge="1">
                    <mxGeometry relative="1" as="geometry">
                        <Array as="points">
                            <mxPoint x="540" y="180"/>
                        </Array>
                    </mxGeometry>
                </mxCell>
                <mxCell id="qi72QTewOVqa7YclX3Wh-5" value="Oui" style="edgeLabel;html=1;align=center;verticalAlign=middle;resizable=0;points=[];" parent="3KBwBZdhE7WF4Y3FgFT6-2" vertex="1" connectable="0">
                    <mxGeometry x="-0.8304" y="-1" relative="1" as="geometry">
                        <mxPoint x="1" y="-1" as="offset"/>
                    </mxGeometry>
                </mxCell>
                <mxCell id="aF5qxgkO2dywwEZLC3lP-1" value="While&lt;br&gt;True" style="rhombus;whiteSpace=wrap;html=1;rounded=0;shadow=0;glass=0;sketch=0;" parent="1" vertex="1">
                    <mxGeometry x="400" y="140" width="80" height="80" as="geometry"/>
                </mxCell>
                <mxCell id="aF5qxgkO2dywwEZLC3lP-4" value="" style="group" parent="1" vertex="1" connectable="0">
                    <mxGeometry x="20" y="200" width="240" height="140" as="geometry"/>
                </mxCell>
                <mxCell id="IGIC-wHaAdG-FFuRptp--1" value="Onde ISM sans-fil" style="ellipse;whiteSpace=wrap;html=1;rounded=0;shadow=0;glass=0;sketch=0;" parent="aF5qxgkO2dywwEZLC3lP-4" vertex="1">
                    <mxGeometry width="120" height="80" as="geometry"/>
                </mxCell>
                <mxCell id="IGIC-wHaAdG-FFuRptp--2" value="Module NRF" style="rounded=0;whiteSpace=wrap;html=1;shadow=0;glass=0;sketch=0;" parent="aF5qxgkO2dywwEZLC3lP-4" vertex="1">
                    <mxGeometry x="120" y="80" width="120" height="60" as="geometry"/>
                </mxCell>
                <mxCell id="IGIC-wHaAdG-FFuRptp--3" style="edgeStyle=none;html=1;exitX=0.5;exitY=1;exitDx=0;exitDy=0;entryX=0;entryY=0.5;entryDx=0;entryDy=0;" parent="aF5qxgkO2dywwEZLC3lP-4" source="IGIC-wHaAdG-FFuRptp--1" target="IGIC-wHaAdG-FFuRptp--2" edge="1">
                    <mxGeometry relative="1" as="geometry">
                        <Array as="points">
                            <mxPoint x="60" y="110"/>
                        </Array>
                    </mxGeometry>
                </mxCell>
                <mxCell id="aF5qxgkO2dywwEZLC3lP-15" style="edgeStyle=none;html=1;exitX=1;exitY=0.5;exitDx=0;exitDy=0;entryX=0;entryY=0.355;entryDx=0;entryDy=0;entryPerimeter=0;" parent="1" source="IGIC-wHaAdG-FFuRptp--2" target="YX-Q4lQZBypjuz9mWShq-77" edge="1">
                    <mxGeometry relative="1" as="geometry">
                        <mxPoint x="320" y="310" as="targetPoint"/>
                    </mxGeometry>
                </mxCell>
                <mxCell id="aF5qxgkO2dywwEZLC3lP-17" style="edgeStyle=none;html=1;exitX=1;exitY=0.5;exitDx=0;exitDy=0;entryX=-0.003;entryY=0.17;entryDx=0;entryDy=0;entryPerimeter=0;" parent="1" source="HXoz_swLZMIebrg_eW4X-1" target="YX-Q4lQZBypjuz9mWShq-77" edge="1">
                    <mxGeometry relative="1" as="geometry">
                        <mxPoint x="320" y="170" as="targetPoint"/>
                    </mxGeometry>
                </mxCell>
                <mxCell id="3KBwBZdhE7WF4Y3FgFT6-4" style="edgeStyle=none;html=1;exitX=0.5;exitY=1;exitDx=0;exitDy=0;entryX=0.5;entryY=0;entryDx=0;entryDy=0;" parent="1" source="3KBwBZdhE7WF4Y3FgFT6-1" target="3KBwBZdhE7WF4Y3FgFT6-3" edge="1">
                    <mxGeometry relative="1" as="geometry"/>
                </mxCell>
                <mxCell id="3KBwBZdhE7WF4Y3FgFT6-1" value="Lecture des trames du NRF" style="rounded=1;whiteSpace=wrap;html=1;" parent="1" vertex="1">
                    <mxGeometry x="480" y="220" width="120" height="60" as="geometry"/>
                </mxCell>
                <mxCell id="SsjHVZGTH4pwEsUziO5u-1" style="edgeStyle=none;html=1;exitX=0.5;exitY=1;exitDx=0;exitDy=0;entryX=0.5;entryY=0;entryDx=0;entryDy=0;" edge="1" parent="1" source="3KBwBZdhE7WF4Y3FgFT6-3" target="qi72QTewOVqa7YclX3Wh-3">
                    <mxGeometry relative="1" as="geometry"/>
                </mxCell>
                <mxCell id="3KBwBZdhE7WF4Y3FgFT6-3" value="Désactivation des&amp;nbsp; DELs" style="rounded=1;whiteSpace=wrap;html=1;" parent="1" vertex="1">
                    <mxGeometry x="480" y="330" width="120" height="60" as="geometry"/>
                </mxCell>
                <mxCell id="qi72QTewOVqa7YclX3Wh-8" value="" style="edgeStyle=none;html=1;" parent="1" source="qi72QTewOVqa7YclX3Wh-3" target="qi72QTewOVqa7YclX3Wh-7" edge="1">
                    <mxGeometry relative="1" as="geometry">
                        <Array as="points">
                            <mxPoint x="540" y="510"/>
                        </Array>
                    </mxGeometry>
                </mxCell>
                <mxCell id="qi72QTewOVqa7YclX3Wh-3" value="Active DELs vertes selon nombre de tirs restants" style="rounded=1;whiteSpace=wrap;html=1;" parent="1" vertex="1">
                    <mxGeometry x="480" y="430" width="120" height="60" as="geometry"/>
                </mxCell>
                <mxCell id="Z203PiRUvJXq7Pn9qyKv-121" style="edgeStyle=none;html=1;exitX=0.5;exitY=1;exitDx=0;exitDy=0;entryX=1;entryY=0.5;entryDx=0;entryDy=0;" parent="1" source="qi72QTewOVqa7YclX3Wh-7" target="Z203PiRUvJXq7Pn9qyKv-1" edge="1">
                    <mxGeometry relative="1" as="geometry">
                        <Array as="points">
                            <mxPoint x="660" y="590"/>
                        </Array>
                    </mxGeometry>
                </mxCell>
                <mxCell id="Z203PiRUvJXq7Pn9qyKv-122" value="Oui" style="edgeLabel;html=1;align=center;verticalAlign=middle;resizable=0;points=[];" parent="Z203PiRUvJXq7Pn9qyKv-121" vertex="1" connectable="0">
                    <mxGeometry x="-0.7876" y="2" relative="1" as="geometry">
                        <mxPoint x="-2" as="offset"/>
                    </mxGeometry>
                </mxCell>
                <mxCell id="YX-Q4lQZBypjuz9mWShq-3" style="edgeStyle=none;html=1;exitX=1;exitY=0.5;exitDx=0;exitDy=0;entryX=1;entryY=0.5;entryDx=0;entryDy=0;" parent="1" source="qi72QTewOVqa7YclX3Wh-7" target="Z203PiRUvJXq7Pn9qyKv-5" edge="1">
                    <mxGeometry relative="1" as="geometry">
                        <Array as="points">
                            <mxPoint x="720" y="510"/>
                            <mxPoint x="720" y="680"/>
                        </Array>
                    </mxGeometry>
                </mxCell>
                <mxCell id="YX-Q4lQZBypjuz9mWShq-4" value="Non" style="edgeLabel;html=1;align=center;verticalAlign=middle;resizable=0;points=[];" parent="YX-Q4lQZBypjuz9mWShq-3" vertex="1" connectable="0">
                    <mxGeometry x="-0.6762" relative="1" as="geometry">
                        <mxPoint y="-14" as="offset"/>
                    </mxGeometry>
                </mxCell>
                <mxCell id="qi72QTewOVqa7YclX3Wh-7" value="Reset&lt;br&gt;activé ?" style="rhombus;whiteSpace=wrap;html=1;" parent="1" vertex="1">
                    <mxGeometry x="620" y="470" width="80" height="80" as="geometry"/>
                </mxCell>
                <mxCell id="Z203PiRUvJXq7Pn9qyKv-125" style="edgeStyle=none;html=1;exitX=0;exitY=0.5;exitDx=0;exitDy=0;entryX=0.5;entryY=1;entryDx=0;entryDy=0;" parent="1" source="Z203PiRUvJXq7Pn9qyKv-1" target="aF5qxgkO2dywwEZLC3lP-1" edge="1">
                    <mxGeometry relative="1" as="geometry">
                        <Array as="points">
                            <mxPoint x="440" y="590"/>
                        </Array>
                    </mxGeometry>
                </mxCell>
                <mxCell id="Z203PiRUvJXq7Pn9qyKv-1" value="Nouvelle partie" style="rounded=1;whiteSpace=wrap;html=1;" parent="1" vertex="1">
                    <mxGeometry x="480" y="560" width="120" height="60" as="geometry"/>
                </mxCell>
                <mxCell id="Z203PiRUvJXq7Pn9qyKv-128" style="edgeStyle=none;html=1;exitX=0;exitY=0.5;exitDx=0;exitDy=0;entryX=0.5;entryY=0;entryDx=0;entryDy=0;" parent="1" source="Z203PiRUvJXq7Pn9qyKv-5" target="Z203PiRUvJXq7Pn9qyKv-126" edge="1">
                    <mxGeometry relative="1" as="geometry">
                        <Array as="points">
                            <mxPoint x="540" y="680"/>
                        </Array>
                    </mxGeometry>
                </mxCell>
                <mxCell id="Z203PiRUvJXq7Pn9qyKv-130" value="Oui" style="edgeLabel;html=1;align=center;verticalAlign=middle;resizable=0;points=[];" parent="Z203PiRUvJXq7Pn9qyKv-128" vertex="1" connectable="0">
                    <mxGeometry x="-0.8763" y="-1" relative="1" as="geometry">
                        <mxPoint x="-14" y="1" as="offset"/>
                    </mxGeometry>
                </mxCell>
                <mxCell id="YX-Q4lQZBypjuz9mWShq-58" value="" style="edgeStyle=none;html=1;entryX=0;entryY=0.5;entryDx=0;entryDy=0;" parent="1" source="Z203PiRUvJXq7Pn9qyKv-5" target="Z203PiRUvJXq7Pn9qyKv-81" edge="1">
                    <mxGeometry relative="1" as="geometry">
                        <mxPoint x="740" y="350" as="targetPoint"/>
                        <Array as="points">
                            <mxPoint x="660" y="740"/>
                            <mxPoint x="760" y="740"/>
                            <mxPoint x="760" y="200"/>
                        </Array>
                    </mxGeometry>
                </mxCell>
                <mxCell id="YX-Q4lQZBypjuz9mWShq-59" value="Non" style="edgeLabel;html=1;align=center;verticalAlign=middle;resizable=0;points=[];" parent="YX-Q4lQZBypjuz9mWShq-58" vertex="1" connectable="0">
                    <mxGeometry x="-0.9338" y="3" relative="1" as="geometry">
                        <mxPoint x="-6" y="-7" as="offset"/>
                    </mxGeometry>
                </mxCell>
                <mxCell id="Z203PiRUvJXq7Pn9qyKv-5" value="Fin du jeu ?&lt;br&gt;" style="rhombus;whiteSpace=wrap;html=1;" parent="1" vertex="1">
                    <mxGeometry x="620" y="640" width="80" height="80" as="geometry"/>
                </mxCell>
                <mxCell id="Z203PiRUvJXq7Pn9qyKv-129" style="edgeStyle=none;html=1;exitX=0;exitY=0.5;exitDx=0;exitDy=0;entryX=0.5;entryY=1;entryDx=0;entryDy=0;" parent="1" source="Z203PiRUvJXq7Pn9qyKv-126" target="aF5qxgkO2dywwEZLC3lP-1" edge="1">
                    <mxGeometry relative="1" as="geometry">
                        <Array as="points">
                            <mxPoint x="440" y="730"/>
                        </Array>
                    </mxGeometry>
                </mxCell>
                <mxCell id="Z203PiRUvJXq7Pn9qyKv-126" value="Affichage du fin de jeu &amp;amp; pointage sur écran I²C" style="whiteSpace=wrap;html=1;rounded=1;" parent="1" vertex="1">
                    <mxGeometry x="480" y="700" width="120" height="60" as="geometry"/>
                </mxCell>
                <mxCell id="YX-Q4lQZBypjuz9mWShq-10" value="" style="group" parent="1" vertex="1" connectable="0">
                    <mxGeometry x="780" y="160" width="500" height="80" as="geometry"/>
                </mxCell>
                <mxCell id="Z203PiRUvJXq7Pn9qyKv-81" value="data = &lt;br&gt;5 ?" style="rhombus;whiteSpace=wrap;html=1;" parent="YX-Q4lQZBypjuz9mWShq-10" vertex="1">
                    <mxGeometry width="80" height="80" as="geometry"/>
                </mxCell>
                <mxCell id="Z203PiRUvJXq7Pn9qyKv-17" value="Calcul points total" style="rounded=1;whiteSpace=wrap;html=1;" parent="YX-Q4lQZBypjuz9mWShq-10" vertex="1">
                    <mxGeometry x="100" y="10" width="120" height="60" as="geometry"/>
                </mxCell>
                <mxCell id="YX-Q4lQZBypjuz9mWShq-6" value="" style="edgeStyle=none;html=1;" parent="YX-Q4lQZBypjuz9mWShq-10" source="Z203PiRUvJXq7Pn9qyKv-81" target="Z203PiRUvJXq7Pn9qyKv-17" edge="1">
                    <mxGeometry relative="1" as="geometry"/>
                </mxCell>
                <mxCell id="YX-Q4lQZBypjuz9mWShq-9" value="Oui" style="edgeLabel;html=1;align=center;verticalAlign=middle;resizable=0;points=[];" parent="YX-Q4lQZBypjuz9mWShq-6" vertex="1" connectable="0">
                    <mxGeometry x="-0.7051" y="2" relative="1" as="geometry">
                        <mxPoint y="-8" as="offset"/>
                    </mxGeometry>
                </mxCell>
                <mxCell id="Z203PiRUvJXq7Pn9qyKv-33" value="Conversion points en texte" style="whiteSpace=wrap;html=1;rounded=1;" parent="YX-Q4lQZBypjuz9mWShq-10" vertex="1">
                    <mxGeometry x="240" y="10" width="120" height="60" as="geometry"/>
                </mxCell>
                <mxCell id="YX-Q4lQZBypjuz9mWShq-7" value="" style="edgeStyle=none;html=1;" parent="YX-Q4lQZBypjuz9mWShq-10" source="Z203PiRUvJXq7Pn9qyKv-17" target="Z203PiRUvJXq7Pn9qyKv-33" edge="1">
                    <mxGeometry relative="1" as="geometry"/>
                </mxCell>
                <mxCell id="Z203PiRUvJXq7Pn9qyKv-35" value="Affichage du niveau &amp;amp; pointage sur écran I²C" style="whiteSpace=wrap;html=1;rounded=1;" parent="YX-Q4lQZBypjuz9mWShq-10" vertex="1">
                    <mxGeometry x="380" y="10" width="120" height="60" as="geometry"/>
                </mxCell>
                <mxCell id="YX-Q4lQZBypjuz9mWShq-8" value="" style="edgeStyle=none;html=1;" parent="YX-Q4lQZBypjuz9mWShq-10" source="Z203PiRUvJXq7Pn9qyKv-33" target="Z203PiRUvJXq7Pn9qyKv-35" edge="1">
                    <mxGeometry relative="1" as="geometry"/>
                </mxCell>
                <mxCell id="YX-Q4lQZBypjuz9mWShq-11" value="" style="group" parent="1" vertex="1" connectable="0">
                    <mxGeometry x="780" y="260" width="500" height="80" as="geometry"/>
                </mxCell>
                <mxCell id="YX-Q4lQZBypjuz9mWShq-12" value="data =&lt;br&gt;1 || 17 ?" style="rhombus;whiteSpace=wrap;html=1;" parent="YX-Q4lQZBypjuz9mWShq-11" vertex="1">
                    <mxGeometry width="80" height="80" as="geometry"/>
                </mxCell>
                <mxCell id="YX-Q4lQZBypjuz9mWShq-13" value="Calcul points total" style="rounded=1;whiteSpace=wrap;html=1;" parent="YX-Q4lQZBypjuz9mWShq-11" vertex="1">
                    <mxGeometry x="100" y="10" width="120" height="60" as="geometry"/>
                </mxCell>
                <mxCell id="YX-Q4lQZBypjuz9mWShq-14" value="" style="edgeStyle=none;html=1;" parent="YX-Q4lQZBypjuz9mWShq-11" source="YX-Q4lQZBypjuz9mWShq-12" target="YX-Q4lQZBypjuz9mWShq-13" edge="1">
                    <mxGeometry relative="1" as="geometry"/>
                </mxCell>
                <mxCell id="YX-Q4lQZBypjuz9mWShq-15" value="Oui" style="edgeLabel;html=1;align=center;verticalAlign=middle;resizable=0;points=[];" parent="YX-Q4lQZBypjuz9mWShq-14" vertex="1" connectable="0">
                    <mxGeometry x="-0.7051" y="2" relative="1" as="geometry">
                        <mxPoint y="-8" as="offset"/>
                    </mxGeometry>
                </mxCell>
                <mxCell id="YX-Q4lQZBypjuz9mWShq-16" value="Conversion points en texte" style="whiteSpace=wrap;html=1;rounded=1;" parent="YX-Q4lQZBypjuz9mWShq-11" vertex="1">
                    <mxGeometry x="240" y="10" width="120" height="60" as="geometry"/>
                </mxCell>
                <mxCell id="YX-Q4lQZBypjuz9mWShq-17" value="" style="edgeStyle=none;html=1;" parent="YX-Q4lQZBypjuz9mWShq-11" source="YX-Q4lQZBypjuz9mWShq-13" target="YX-Q4lQZBypjuz9mWShq-16" edge="1">
                    <mxGeometry relative="1" as="geometry"/>
                </mxCell>
                <mxCell id="YX-Q4lQZBypjuz9mWShq-18" value="Affichage du niveau &amp;amp; pointage sur écran I²C" style="whiteSpace=wrap;html=1;rounded=1;" parent="YX-Q4lQZBypjuz9mWShq-11" vertex="1">
                    <mxGeometry x="380" y="10" width="120" height="60" as="geometry"/>
                </mxCell>
                <mxCell id="YX-Q4lQZBypjuz9mWShq-19" value="" style="edgeStyle=none;html=1;" parent="YX-Q4lQZBypjuz9mWShq-11" source="YX-Q4lQZBypjuz9mWShq-16" target="YX-Q4lQZBypjuz9mWShq-18" edge="1">
                    <mxGeometry relative="1" as="geometry"/>
                </mxCell>
                <mxCell id="YX-Q4lQZBypjuz9mWShq-21" value="" style="group" parent="1" vertex="1" connectable="0">
                    <mxGeometry x="780" y="360" width="500" height="80" as="geometry"/>
                </mxCell>
                <mxCell id="YX-Q4lQZBypjuz9mWShq-22" value="data =&amp;nbsp;&lt;br&gt;21 ?" style="rhombus;whiteSpace=wrap;html=1;" parent="YX-Q4lQZBypjuz9mWShq-21" vertex="1">
                    <mxGeometry width="80" height="80" as="geometry"/>
                </mxCell>
                <mxCell id="YX-Q4lQZBypjuz9mWShq-23" value="Calcul points total" style="rounded=1;whiteSpace=wrap;html=1;" parent="YX-Q4lQZBypjuz9mWShq-21" vertex="1">
                    <mxGeometry x="100" y="10" width="120" height="60" as="geometry"/>
                </mxCell>
                <mxCell id="YX-Q4lQZBypjuz9mWShq-24" value="" style="edgeStyle=none;html=1;" parent="YX-Q4lQZBypjuz9mWShq-21" source="YX-Q4lQZBypjuz9mWShq-22" target="YX-Q4lQZBypjuz9mWShq-23" edge="1">
                    <mxGeometry relative="1" as="geometry"/>
                </mxCell>
                <mxCell id="YX-Q4lQZBypjuz9mWShq-25" value="Oui" style="edgeLabel;html=1;align=center;verticalAlign=middle;resizable=0;points=[];" parent="YX-Q4lQZBypjuz9mWShq-24" vertex="1" connectable="0">
                    <mxGeometry x="-0.7051" y="2" relative="1" as="geometry">
                        <mxPoint y="-8" as="offset"/>
                    </mxGeometry>
                </mxCell>
                <mxCell id="YX-Q4lQZBypjuz9mWShq-26" value="Conversion points en texte" style="whiteSpace=wrap;html=1;rounded=1;" parent="YX-Q4lQZBypjuz9mWShq-21" vertex="1">
                    <mxGeometry x="240" y="10" width="120" height="60" as="geometry"/>
                </mxCell>
                <mxCell id="YX-Q4lQZBypjuz9mWShq-27" value="" style="edgeStyle=none;html=1;" parent="YX-Q4lQZBypjuz9mWShq-21" source="YX-Q4lQZBypjuz9mWShq-23" target="YX-Q4lQZBypjuz9mWShq-26" edge="1">
                    <mxGeometry relative="1" as="geometry"/>
                </mxCell>
                <mxCell id="YX-Q4lQZBypjuz9mWShq-28" value="Affichage du niveau &amp;amp; pointage sur écran I²C" style="whiteSpace=wrap;html=1;rounded=1;" parent="YX-Q4lQZBypjuz9mWShq-21" vertex="1">
                    <mxGeometry x="380" y="10" width="120" height="60" as="geometry"/>
                </mxCell>
                <mxCell id="YX-Q4lQZBypjuz9mWShq-29" value="" style="edgeStyle=none;html=1;" parent="YX-Q4lQZBypjuz9mWShq-21" source="YX-Q4lQZBypjuz9mWShq-26" target="YX-Q4lQZBypjuz9mWShq-28" edge="1">
                    <mxGeometry relative="1" as="geometry"/>
                </mxCell>
                <mxCell id="YX-Q4lQZBypjuz9mWShq-30" value="" style="group" parent="1" vertex="1" connectable="0">
                    <mxGeometry x="780" y="460" width="500" height="80" as="geometry"/>
                </mxCell>
                <mxCell id="YX-Q4lQZBypjuz9mWShq-31" value="data =&amp;nbsp;&lt;br&gt;19 || 33 ?" style="rhombus;whiteSpace=wrap;html=1;" parent="YX-Q4lQZBypjuz9mWShq-30" vertex="1">
                    <mxGeometry width="80" height="80" as="geometry"/>
                </mxCell>
                <mxCell id="YX-Q4lQZBypjuz9mWShq-32" value="Calcul points total" style="rounded=1;whiteSpace=wrap;html=1;" parent="YX-Q4lQZBypjuz9mWShq-30" vertex="1">
                    <mxGeometry x="100" y="10" width="120" height="60" as="geometry"/>
                </mxCell>
                <mxCell id="YX-Q4lQZBypjuz9mWShq-33" value="" style="edgeStyle=none;html=1;" parent="YX-Q4lQZBypjuz9mWShq-30" source="YX-Q4lQZBypjuz9mWShq-31" target="YX-Q4lQZBypjuz9mWShq-32" edge="1">
                    <mxGeometry relative="1" as="geometry"/>
                </mxCell>
                <mxCell id="YX-Q4lQZBypjuz9mWShq-34" value="Oui" style="edgeLabel;html=1;align=center;verticalAlign=middle;resizable=0;points=[];" parent="YX-Q4lQZBypjuz9mWShq-33" vertex="1" connectable="0">
                    <mxGeometry x="-0.7051" y="2" relative="1" as="geometry">
                        <mxPoint y="-8" as="offset"/>
                    </mxGeometry>
                </mxCell>
                <mxCell id="YX-Q4lQZBypjuz9mWShq-35" value="Conversion points en texte" style="whiteSpace=wrap;html=1;rounded=1;" parent="YX-Q4lQZBypjuz9mWShq-30" vertex="1">
                    <mxGeometry x="240" y="10" width="120" height="60" as="geometry"/>
                </mxCell>
                <mxCell id="YX-Q4lQZBypjuz9mWShq-36" value="" style="edgeStyle=none;html=1;" parent="YX-Q4lQZBypjuz9mWShq-30" source="YX-Q4lQZBypjuz9mWShq-32" target="YX-Q4lQZBypjuz9mWShq-35" edge="1">
                    <mxGeometry relative="1" as="geometry"/>
                </mxCell>
                <mxCell id="YX-Q4lQZBypjuz9mWShq-37" value="Affichage du niveau &amp;amp; pointage sur écran I²C" style="whiteSpace=wrap;html=1;rounded=1;" parent="YX-Q4lQZBypjuz9mWShq-30" vertex="1">
                    <mxGeometry x="380" y="10" width="120" height="60" as="geometry"/>
                </mxCell>
                <mxCell id="YX-Q4lQZBypjuz9mWShq-38" value="" style="edgeStyle=none;html=1;" parent="YX-Q4lQZBypjuz9mWShq-30" source="YX-Q4lQZBypjuz9mWShq-35" target="YX-Q4lQZBypjuz9mWShq-37" edge="1">
                    <mxGeometry relative="1" as="geometry"/>
                </mxCell>
                <mxCell id="YX-Q4lQZBypjuz9mWShq-39" value="" style="group" parent="1" vertex="1" connectable="0">
                    <mxGeometry x="780" y="560" width="500" height="80" as="geometry"/>
                </mxCell>
                <mxCell id="YX-Q4lQZBypjuz9mWShq-40" value="data =&amp;nbsp;&lt;br&gt;37 ?" style="rhombus;whiteSpace=wrap;html=1;" parent="YX-Q4lQZBypjuz9mWShq-39" vertex="1">
                    <mxGeometry width="80" height="80" as="geometry"/>
                </mxCell>
                <mxCell id="YX-Q4lQZBypjuz9mWShq-41" value="Calcul points total" style="rounded=1;whiteSpace=wrap;html=1;" parent="YX-Q4lQZBypjuz9mWShq-39" vertex="1">
                    <mxGeometry x="100" y="10" width="120" height="60" as="geometry"/>
                </mxCell>
                <mxCell id="YX-Q4lQZBypjuz9mWShq-42" value="" style="edgeStyle=none;html=1;" parent="YX-Q4lQZBypjuz9mWShq-39" source="YX-Q4lQZBypjuz9mWShq-40" target="YX-Q4lQZBypjuz9mWShq-41" edge="1">
                    <mxGeometry relative="1" as="geometry"/>
                </mxCell>
                <mxCell id="YX-Q4lQZBypjuz9mWShq-43" value="Oui" style="edgeLabel;html=1;align=center;verticalAlign=middle;resizable=0;points=[];" parent="YX-Q4lQZBypjuz9mWShq-42" vertex="1" connectable="0">
                    <mxGeometry x="-0.7051" y="2" relative="1" as="geometry">
                        <mxPoint y="-8" as="offset"/>
                    </mxGeometry>
                </mxCell>
                <mxCell id="YX-Q4lQZBypjuz9mWShq-44" value="Conversion points en texte" style="whiteSpace=wrap;html=1;rounded=1;" parent="YX-Q4lQZBypjuz9mWShq-39" vertex="1">
                    <mxGeometry x="240" y="10" width="120" height="60" as="geometry"/>
                </mxCell>
                <mxCell id="YX-Q4lQZBypjuz9mWShq-45" value="" style="edgeStyle=none;html=1;" parent="YX-Q4lQZBypjuz9mWShq-39" source="YX-Q4lQZBypjuz9mWShq-41" target="YX-Q4lQZBypjuz9mWShq-44" edge="1">
                    <mxGeometry relative="1" as="geometry"/>
                </mxCell>
                <mxCell id="YX-Q4lQZBypjuz9mWShq-46" value="Affichage du niveau &amp;amp; pointage sur écran I²C" style="whiteSpace=wrap;html=1;rounded=1;" parent="YX-Q4lQZBypjuz9mWShq-39" vertex="1">
                    <mxGeometry x="380" y="10" width="120" height="60" as="geometry"/>
                </mxCell>
                <mxCell id="YX-Q4lQZBypjuz9mWShq-47" value="" style="edgeStyle=none;html=1;" parent="YX-Q4lQZBypjuz9mWShq-39" source="YX-Q4lQZBypjuz9mWShq-44" target="YX-Q4lQZBypjuz9mWShq-46" edge="1">
                    <mxGeometry relative="1" as="geometry"/>
                </mxCell>
                <mxCell id="YX-Q4lQZBypjuz9mWShq-48" value="" style="group" parent="1" vertex="1" connectable="0">
                    <mxGeometry x="780" y="660" width="500" height="80" as="geometry"/>
                </mxCell>
                <mxCell id="YX-Q4lQZBypjuz9mWShq-49" value="data =&amp;nbsp;&lt;br&gt;35 ?" style="rhombus;whiteSpace=wrap;html=1;" parent="YX-Q4lQZBypjuz9mWShq-48" vertex="1">
                    <mxGeometry width="80" height="80" as="geometry"/>
                </mxCell>
                <mxCell id="YX-Q4lQZBypjuz9mWShq-50" value="Calcul points total" style="rounded=1;whiteSpace=wrap;html=1;" parent="YX-Q4lQZBypjuz9mWShq-48" vertex="1">
                    <mxGeometry x="100" y="10" width="120" height="60" as="geometry"/>
                </mxCell>
                <mxCell id="YX-Q4lQZBypjuz9mWShq-51" value="" style="edgeStyle=none;html=1;" parent="YX-Q4lQZBypjuz9mWShq-48" source="YX-Q4lQZBypjuz9mWShq-49" target="YX-Q4lQZBypjuz9mWShq-50" edge="1">
                    <mxGeometry relative="1" as="geometry"/>
                </mxCell>
                <mxCell id="YX-Q4lQZBypjuz9mWShq-52" value="Oui" style="edgeLabel;html=1;align=center;verticalAlign=middle;resizable=0;points=[];" parent="YX-Q4lQZBypjuz9mWShq-51" vertex="1" connectable="0">
                    <mxGeometry x="-0.7051" y="2" relative="1" as="geometry">
                        <mxPoint y="-8" as="offset"/>
                    </mxGeometry>
                </mxCell>
                <mxCell id="YX-Q4lQZBypjuz9mWShq-53" value="Conversion points en texte" style="whiteSpace=wrap;html=1;rounded=1;" parent="YX-Q4lQZBypjuz9mWShq-48" vertex="1">
                    <mxGeometry x="240" y="10" width="120" height="60" as="geometry"/>
                </mxCell>
                <mxCell id="YX-Q4lQZBypjuz9mWShq-54" value="" style="edgeStyle=none;html=1;" parent="YX-Q4lQZBypjuz9mWShq-48" source="YX-Q4lQZBypjuz9mWShq-50" target="YX-Q4lQZBypjuz9mWShq-53" edge="1">
                    <mxGeometry relative="1" as="geometry"/>
                </mxCell>
                <mxCell id="YX-Q4lQZBypjuz9mWShq-55" value="Affichage du niveau &amp;amp; pointage sur écran I²C" style="whiteSpace=wrap;html=1;rounded=1;" parent="YX-Q4lQZBypjuz9mWShq-48" vertex="1">
                    <mxGeometry x="380" y="10" width="120" height="60" as="geometry"/>
                </mxCell>
                <mxCell id="YX-Q4lQZBypjuz9mWShq-56" value="" style="edgeStyle=none;html=1;" parent="YX-Q4lQZBypjuz9mWShq-48" source="YX-Q4lQZBypjuz9mWShq-53" target="YX-Q4lQZBypjuz9mWShq-55" edge="1">
                    <mxGeometry relative="1" as="geometry"/>
                </mxCell>
                <mxCell id="YX-Q4lQZBypjuz9mWShq-60" value="" style="edgeStyle=none;html=1;" parent="1" source="Z203PiRUvJXq7Pn9qyKv-81" target="YX-Q4lQZBypjuz9mWShq-12" edge="1">
                    <mxGeometry relative="1" as="geometry"/>
                </mxCell>
                <mxCell id="YX-Q4lQZBypjuz9mWShq-66" value="Non" style="edgeLabel;html=1;align=center;verticalAlign=middle;resizable=0;points=[];" parent="YX-Q4lQZBypjuz9mWShq-60" vertex="1" connectable="0">
                    <mxGeometry x="-0.5839" y="-2" relative="1" as="geometry">
                        <mxPoint x="2" y="-4" as="offset"/>
                    </mxGeometry>
                </mxCell>
                <mxCell id="YX-Q4lQZBypjuz9mWShq-61" value="" style="edgeStyle=none;html=1;" parent="1" source="YX-Q4lQZBypjuz9mWShq-12" target="YX-Q4lQZBypjuz9mWShq-22" edge="1">
                    <mxGeometry relative="1" as="geometry"/>
                </mxCell>
                <mxCell id="YX-Q4lQZBypjuz9mWShq-67" value="Non" style="edgeLabel;html=1;align=center;verticalAlign=middle;resizable=0;points=[];" parent="YX-Q4lQZBypjuz9mWShq-61" vertex="1" connectable="0">
                    <mxGeometry x="-0.4871" y="-1" relative="1" as="geometry">
                        <mxPoint x="1" y="-5" as="offset"/>
                    </mxGeometry>
                </mxCell>
                <mxCell id="YX-Q4lQZBypjuz9mWShq-62" value="" style="edgeStyle=none;html=1;" parent="1" source="YX-Q4lQZBypjuz9mWShq-22" target="YX-Q4lQZBypjuz9mWShq-31" edge="1">
                    <mxGeometry relative="1" as="geometry"/>
                </mxCell>
                <mxCell id="YX-Q4lQZBypjuz9mWShq-68" value="Non" style="edgeLabel;html=1;align=center;verticalAlign=middle;resizable=0;points=[];" parent="YX-Q4lQZBypjuz9mWShq-62" vertex="1" connectable="0">
                    <mxGeometry x="-0.571" relative="1" as="geometry">
                        <mxPoint y="-4" as="offset"/>
                    </mxGeometry>
                </mxCell>
                <mxCell id="YX-Q4lQZBypjuz9mWShq-63" value="" style="edgeStyle=none;html=1;" parent="1" source="YX-Q4lQZBypjuz9mWShq-31" target="YX-Q4lQZBypjuz9mWShq-40" edge="1">
                    <mxGeometry relative="1" as="geometry"/>
                </mxCell>
                <mxCell id="YX-Q4lQZBypjuz9mWShq-69" value="Non" style="edgeLabel;html=1;align=center;verticalAlign=middle;resizable=0;points=[];" parent="YX-Q4lQZBypjuz9mWShq-63" vertex="1" connectable="0">
                    <mxGeometry x="-0.3968" y="1" relative="1" as="geometry">
                        <mxPoint x="-1" y="-6" as="offset"/>
                    </mxGeometry>
                </mxCell>
                <mxCell id="YX-Q4lQZBypjuz9mWShq-64" value="" style="edgeStyle=none;html=1;" parent="1" source="YX-Q4lQZBypjuz9mWShq-40" target="YX-Q4lQZBypjuz9mWShq-49" edge="1">
                    <mxGeometry relative="1" as="geometry"/>
                </mxCell>
                <mxCell id="YX-Q4lQZBypjuz9mWShq-70" value="Non" style="edgeLabel;html=1;align=center;verticalAlign=middle;resizable=0;points=[];" parent="YX-Q4lQZBypjuz9mWShq-64" vertex="1" connectable="0">
                    <mxGeometry x="-0.6032" y="1" relative="1" as="geometry">
                        <mxPoint x="-1" y="-4" as="offset"/>
                    </mxGeometry>
                </mxCell>
                <mxCell id="YX-Q4lQZBypjuz9mWShq-71" style="edgeStyle=none;html=1;exitX=1;exitY=0.5;exitDx=0;exitDy=0;entryX=0.5;entryY=1;entryDx=0;entryDy=0;" parent="1" source="Z203PiRUvJXq7Pn9qyKv-35" target="aF5qxgkO2dywwEZLC3lP-1" edge="1">
                    <mxGeometry relative="1" as="geometry">
                        <Array as="points">
                            <mxPoint x="1340" y="200"/>
                            <mxPoint x="1340" y="780"/>
                            <mxPoint x="440" y="780"/>
                        </Array>
                    </mxGeometry>
                </mxCell>
                <mxCell id="YX-Q4lQZBypjuz9mWShq-72" style="edgeStyle=none;html=1;exitX=1;exitY=0.5;exitDx=0;exitDy=0;entryX=0.5;entryY=1;entryDx=0;entryDy=0;" parent="1" source="YX-Q4lQZBypjuz9mWShq-18" target="aF5qxgkO2dywwEZLC3lP-1" edge="1">
                    <mxGeometry relative="1" as="geometry">
                        <Array as="points">
                            <mxPoint x="1340" y="300"/>
                            <mxPoint x="1340" y="780"/>
                            <mxPoint x="440" y="780"/>
                        </Array>
                    </mxGeometry>
                </mxCell>
                <mxCell id="YX-Q4lQZBypjuz9mWShq-73" style="edgeStyle=none;html=1;exitX=1;exitY=0.5;exitDx=0;exitDy=0;entryX=0.5;entryY=1;entryDx=0;entryDy=0;" parent="1" source="YX-Q4lQZBypjuz9mWShq-28" target="aF5qxgkO2dywwEZLC3lP-1" edge="1">
                    <mxGeometry relative="1" as="geometry">
                        <mxPoint x="1340" y="400" as="targetPoint"/>
                        <Array as="points">
                            <mxPoint x="1340" y="400"/>
                            <mxPoint x="1340" y="780"/>
                            <mxPoint x="440" y="780"/>
                        </Array>
                    </mxGeometry>
                </mxCell>
                <mxCell id="YX-Q4lQZBypjuz9mWShq-74" style="edgeStyle=none;html=1;exitX=1;exitY=0.5;exitDx=0;exitDy=0;entryX=0.5;entryY=1;entryDx=0;entryDy=0;" parent="1" source="YX-Q4lQZBypjuz9mWShq-37" target="aF5qxgkO2dywwEZLC3lP-1" edge="1">
                    <mxGeometry relative="1" as="geometry">
                        <Array as="points">
                            <mxPoint x="1340" y="500"/>
                            <mxPoint x="1340" y="780"/>
                            <mxPoint x="440" y="780"/>
                        </Array>
                    </mxGeometry>
                </mxCell>
                <mxCell id="YX-Q4lQZBypjuz9mWShq-75" style="edgeStyle=none;html=1;exitX=1;exitY=0.5;exitDx=0;exitDy=0;entryX=0.5;entryY=1;entryDx=0;entryDy=0;" parent="1" source="YX-Q4lQZBypjuz9mWShq-46" target="aF5qxgkO2dywwEZLC3lP-1" edge="1">
                    <mxGeometry relative="1" as="geometry">
                        <Array as="points">
                            <mxPoint x="1340" y="600"/>
                            <mxPoint x="1340" y="780"/>
                            <mxPoint x="440" y="780"/>
                        </Array>
                    </mxGeometry>
                </mxCell>
                <mxCell id="YX-Q4lQZBypjuz9mWShq-76" style="edgeStyle=none;html=1;exitX=1;exitY=0.5;exitDx=0;exitDy=0;entryX=0.5;entryY=1;entryDx=0;entryDy=0;" parent="1" source="YX-Q4lQZBypjuz9mWShq-55" target="aF5qxgkO2dywwEZLC3lP-1" edge="1">
                    <mxGeometry relative="1" as="geometry">
                        <Array as="points">
                            <mxPoint x="1340" y="700"/>
                            <mxPoint x="1340" y="780"/>
                            <mxPoint x="440" y="780"/>
                        </Array>
                    </mxGeometry>
                </mxCell>
                <mxCell id="YX-Q4lQZBypjuz9mWShq-78" value="Main" style="text;html=1;strokeColor=#3700CC;fillColor=#6a00ff;align=center;verticalAlign=middle;whiteSpace=wrap;rounded=0;fontColor=#ffffff;" parent="1" vertex="1">
                    <mxGeometry x="830" y="40" width="60" height="30" as="geometry"/>
                </mxCell>
                <mxCell id="OrLtFnOgsqkmbgE3haa2-5" style="edgeStyle=none;html=1;exitX=0.22;exitY=1;exitDx=0;exitDy=0;entryX=0.5;entryY=0;entryDx=0;entryDy=0;exitPerimeter=0;" parent="1" source="YX-Q4lQZBypjuz9mWShq-77" target="OrLtFnOgsqkmbgE3haa2-1" edge="1">
                    <mxGeometry relative="1" as="geometry"/>
                </mxCell>
                <mxCell id="OrLtFnOgsqkmbgE3haa2-1" value="DELs vertes" style="ellipse;whiteSpace=wrap;html=1;" parent="1" vertex="1">
                    <mxGeometry x="520" y="840" width="120" height="80" as="geometry"/>
                </mxCell>
                <mxCell id="OrLtFnOgsqkmbgE3haa2-6" style="edgeStyle=none;html=1;exitX=0.5;exitY=0;exitDx=0;exitDy=0;entryX=0.5;entryY=0;entryDx=0;entryDy=0;" parent="1" target="OrLtFnOgsqkmbgE3haa2-2" edge="1">
                    <mxGeometry relative="1" as="geometry">
                        <mxPoint x="740.0952380952381" y="800" as="sourcePoint"/>
                    </mxGeometry>
                </mxCell>
                <mxCell id="OrLtFnOgsqkmbgE3haa2-2" value="DELs rouges" style="ellipse;whiteSpace=wrap;html=1;" parent="1" vertex="1">
                    <mxGeometry x="680" y="840" width="120" height="80" as="geometry"/>
                </mxCell>
                <mxCell id="OrLtFnOgsqkmbgE3haa2-7" style="edgeStyle=none;html=1;exitX=0.5;exitY=0;exitDx=0;exitDy=0;entryX=0.5;entryY=0;entryDx=0;entryDy=0;" parent="1" target="OrLtFnOgsqkmbgE3haa2-3" edge="1">
                    <mxGeometry relative="1" as="geometry">
                        <mxPoint x="1100.095238095238" y="800" as="sourcePoint"/>
                    </mxGeometry>
                </mxCell>
                <mxCell id="OrLtFnOgsqkmbgE3haa2-8" value="I²C" style="edgeLabel;html=1;align=center;verticalAlign=middle;resizable=0;points=[];" parent="OrLtFnOgsqkmbgE3haa2-7" vertex="1" connectable="0">
                    <mxGeometry x="-0.6021" y="-3" relative="1" as="geometry">
                        <mxPoint x="3" y="2" as="offset"/>
                    </mxGeometry>
                </mxCell>
                <mxCell id="OrLtFnOgsqkmbgE3haa2-3" value="Écran I²C" style="ellipse;whiteSpace=wrap;html=1;" parent="1" vertex="1">
                    <mxGeometry x="1040" y="840" width="120" height="80" as="geometry"/>
                </mxCell>
            </root>
        </mxGraphModel>
    </diagram>
    <diagram id="_Yq9Jo2sIi3yot5gPvaG" name="cible">
        <mxGraphModel dx="855" dy="634" grid="1" gridSize="10" guides="1" tooltips="1" connect="1" arrows="1" fold="1" page="1" pageScale="1" pageWidth="1600" pageHeight="1200" math="0" shadow="0">
            <root>
                <mxCell id="0"/>
                <mxCell id="1" parent="0"/>
                <mxCell id="-V0nrOb5lIvjxzMw5Khv-220" value="" style="rounded=0;whiteSpace=wrap;html=1;" parent="1" vertex="1">
                    <mxGeometry x="10" y="10" width="1550" height="1080" as="geometry"/>
                </mxCell>
                <mxCell id="9a6Le65KCHdaUr0kRzH7-226" style="edgeStyle=none;html=1;exitX=1;exitY=0.5;exitDx=0;exitDy=0;entryX=0;entryY=0.202;entryDx=0;entryDy=0;entryPerimeter=0;" parent="1" source="2" target="74" edge="1">
                    <mxGeometry relative="1" as="geometry"/>
                </mxCell>
                <mxCell id="11" value="" style="group" parent="1" vertex="1" connectable="0">
                    <mxGeometry x="20" y="340" width="440" height="80" as="geometry"/>
                </mxCell>
                <mxCell id="4" value="`send _slow1`&lt;br&gt;Drapeau de &lt;br&gt;la cible" style="shape=parallelogram;perimeter=parallelogramPerimeter;whiteSpace=wrap;html=1;fixedSize=1;fontFamily=Helvetica;fontSize=12;fontColor=default;align=center;strokeColor=default;fillColor=default;" parent="11" vertex="1">
                    <mxGeometry x="320" y="10" width="120" height="60" as="geometry"/>
                </mxCell>
                <mxCell id="10" value="" style="group" parent="11" vertex="1" connectable="0">
                    <mxGeometry width="280" height="80" as="geometry"/>
                </mxCell>
                <mxCell id="6" value="Capteur de&lt;span style=&quot;color: rgba(0, 0, 0, 0); font-family: monospace; font-size: 0px; text-align: start;&quot;&gt;%3CmxGraphModel%3E%3Croot%3E%3CmxCell%20id%3D%220%22%2F%3E%3CmxCell%20id%3D%221%22%20parent%3D%220%22%2F%3E%3CmxCell%20id%3D%222%22%20value%3D%22%22%20style%3D%22group%22%20vertex%3D%221%22%20connectable%3D%220%22%20parent%3D%221%22%3E%3CmxGeometry%20x%3D%2230%22%20y%3D%22570%22%20width%3D%22440%22%20height%3D%2280%22%20as%3D%22geometry%22%2F%3E%3C%2FmxCell%3E%3CmxCell%20id%3D%223%22%20value%3D%22%60set_level%60%26lt%3Bbr%26gt%3BS%C3%A9lection%20du%20niveau%20de%20difficult%C3%A9%22%20style%3D%22rounded%3D0%3BwhiteSpace%3Dwrap%3Bhtml%3D1%3B%22%20vertex%3D%221%22%20parent%3D%222%22%3E%3CmxGeometry%20x%3D%22320%22%20y%3D%2210%22%20width%3D%22120%22%20height%3D%2260%22%20as%3D%22geometry%22%2F%3E%3C%2FmxCell%3E%3CmxCell%20id%3D%224%22%20value%3D%22%22%20style%3D%22group%22%20vertex%3D%221%22%20connectable%3D%220%22%20parent%3D%222%22%3E%3CmxGeometry%20width%3D%22280%22%20height%3D%2280%22%20as%3D%22geometry%22%2F%3E%3C%2FmxCell%3E%3CmxCell%20id%3D%225%22%20value%3D%22Bouton%22%20style%3D%22ellipse%3BwhiteSpace%3Dwrap%3Bhtml%3D1%3B%22%20vertex%3D%221%22%20parent%3D%224%22%3E%3CmxGeometry%20width%3D%22120%22%20height%3D%2280%22%20as%3D%22geometry%22%2F%3E%3C%2FmxCell%3E%3CmxCell%20id%3D%226%22%20value%3D%22Interrupt%20%3A%26amp%3Bnbsp%3B%20Bouton%20de%20niveau%22%20style%3D%22shape%3Dprocess%3BwhiteSpace%3Dwrap%3Bhtml%3D1%3BbackgroundOutline%3D1%3B%22%20vertex%3D%221%22%20parent%3D%224%22%3E%3CmxGeometry%20x%3D%22160%22%20y%3D%2210%22%20width%3D%22120%22%20height%3D%2260%22%20as%3D%22geometry%22%2F%3E%3C%2FmxCell%3E%3CmxCell%20id%3D%227%22%20style%3D%22edgeStyle%3Dnone%3Bhtml%3D1%3BexitX%3D1%3BexitY%3D0.5%3BexitDx%3D0%3BexitDy%3D0%3B%22%20edge%3D%221%22%20parent%3D%224%22%20source%3D%225%22%20target%3D%226%22%3E%3CmxGeometry%20relative%3D%221%22%20as%3D%22geometry%22%2F%3E%3C%2FmxCell%3E%3CmxCell%20id%3D%228%22%20style%3D%22edgeStyle%3Dnone%3Bhtml%3D1%3BexitX%3D1%3BexitY%3D0.5%3BexitDx%3D0%3BexitDy%3D0%3BentryX%3D0%3BentryY%3D0.5%3BentryDx%3D0%3BentryDy%3D0%3B%22%20edge%3D%221%22%20parent%3D%222%22%20source%3D%226%22%20target%3D%223%22%3E%3CmxGeometry%20relative%3D%221%22%20as%3D%22geometry%22%2F%3E%3C%2FmxCell%3E%3C%2Froot%3E%3C%2FmxGraphModel%3E&lt;/span&gt;&lt;br&gt;vibration&lt;br&gt;(Lent)" style="ellipse;whiteSpace=wrap;html=1;" parent="10" vertex="1">
                    <mxGeometry width="120" height="80" as="geometry"/>
                </mxCell>
                <mxCell id="7" value="(Front descendant)&lt;br&gt;Interrupt :&amp;nbsp; Interupteur" style="shape=process;whiteSpace=wrap;html=1;backgroundOutline=1;" parent="10" vertex="1">
                    <mxGeometry x="160" y="10" width="120" height="60" as="geometry"/>
                </mxCell>
                <mxCell id="8" style="edgeStyle=none;html=1;exitX=1;exitY=0.5;exitDx=0;exitDy=0;" parent="10" source="6" target="7" edge="1">
                    <mxGeometry relative="1" as="geometry"/>
                </mxCell>
                <mxCell id="9" style="edgeStyle=none;html=1;exitX=1;exitY=0.5;exitDx=0;exitDy=0;entryX=0;entryY=0.5;entryDx=0;entryDy=0;" parent="11" source="7" target="4" edge="1">
                    <mxGeometry relative="1" as="geometry"/>
                </mxCell>
                <mxCell id="21" value="" style="group" parent="1" vertex="1" connectable="0">
                    <mxGeometry x="20" y="440" width="440" height="80" as="geometry"/>
                </mxCell>
                <mxCell id="22" value="`send _slow2`&lt;br&gt;Drapeau de &lt;br&gt;la cible" style="shape=parallelogram;perimeter=parallelogramPerimeter;whiteSpace=wrap;html=1;fixedSize=1;fontFamily=Helvetica;fontSize=12;fontColor=default;align=center;strokeColor=default;fillColor=default;" parent="21" vertex="1">
                    <mxGeometry x="320" y="10" width="120" height="60" as="geometry"/>
                </mxCell>
                <mxCell id="23" value="" style="group" parent="21" vertex="1" connectable="0">
                    <mxGeometry width="280" height="80" as="geometry"/>
                </mxCell>
                <mxCell id="24" value="Capteur de&lt;span style=&quot;color: rgba(0, 0, 0, 0); font-family: monospace; font-size: 0px; text-align: start;&quot;&gt;%3CmxGraphModel%3E%3Croot%3E%3CmxCell%20id%3D%220%22%2F%3E%3CmxCell%20id%3D%221%22%20parent%3D%220%22%2F%3E%3CmxCell%20id%3D%222%22%20value%3D%22%22%20style%3D%22group%22%20vertex%3D%221%22%20connectable%3D%220%22%20parent%3D%221%22%3E%3CmxGeometry%20x%3D%2230%22%20y%3D%22570%22%20width%3D%22440%22%20height%3D%2280%22%20as%3D%22geometry%22%2F%3E%3C%2FmxCell%3E%3CmxCell%20id%3D%223%22%20value%3D%22%60set_level%60%26lt%3Bbr%26gt%3BS%C3%A9lection%20du%20niveau%20de%20difficult%C3%A9%22%20style%3D%22rounded%3D0%3BwhiteSpace%3Dwrap%3Bhtml%3D1%3B%22%20vertex%3D%221%22%20parent%3D%222%22%3E%3CmxGeometry%20x%3D%22320%22%20y%3D%2210%22%20width%3D%22120%22%20height%3D%2260%22%20as%3D%22geometry%22%2F%3E%3C%2FmxCell%3E%3CmxCell%20id%3D%224%22%20value%3D%22%22%20style%3D%22group%22%20vertex%3D%221%22%20connectable%3D%220%22%20parent%3D%222%22%3E%3CmxGeometry%20width%3D%22280%22%20height%3D%2280%22%20as%3D%22geometry%22%2F%3E%3C%2FmxCell%3E%3CmxCell%20id%3D%225%22%20value%3D%22Bouton%22%20style%3D%22ellipse%3BwhiteSpace%3Dwrap%3Bhtml%3D1%3B%22%20vertex%3D%221%22%20parent%3D%224%22%3E%3CmxGeometry%20width%3D%22120%22%20height%3D%2280%22%20as%3D%22geometry%22%2F%3E%3C%2FmxCell%3E%3CmxCell%20id%3D%226%22%20value%3D%22Interrupt%20%3A%26amp%3Bnbsp%3B%20Bouton%20de%20niveau%22%20style%3D%22shape%3Dprocess%3BwhiteSpace%3Dwrap%3Bhtml%3D1%3BbackgroundOutline%3D1%3B%22%20vertex%3D%221%22%20parent%3D%224%22%3E%3CmxGeometry%20x%3D%22160%22%20y%3D%2210%22%20width%3D%22120%22%20height%3D%2260%22%20as%3D%22geometry%22%2F%3E%3C%2FmxCell%3E%3CmxCell%20id%3D%227%22%20style%3D%22edgeStyle%3Dnone%3Bhtml%3D1%3BexitX%3D1%3BexitY%3D0.5%3BexitDx%3D0%3BexitDy%3D0%3B%22%20edge%3D%221%22%20parent%3D%224%22%20source%3D%225%22%20target%3D%226%22%3E%3CmxGeometry%20relative%3D%221%22%20as%3D%22geometry%22%2F%3E%3C%2FmxCell%3E%3CmxCell%20id%3D%228%22%20style%3D%22edgeStyle%3Dnone%3Bhtml%3D1%3BexitX%3D1%3BexitY%3D0.5%3BexitDx%3D0%3BexitDy%3D0%3BentryX%3D0%3BentryY%3D0.5%3BentryDx%3D0%3BentryDy%3D0%3B%22%20edge%3D%221%22%20parent%3D%222%22%20source%3D%226%22%20target%3D%223%22%3E%3CmxGeometry%20relative%3D%221%22%20as%3D%22geometry%22%2F%3E%3C%2FmxCell%3E%3C%2Froot%3E%3C%2FmxGraphModel%3E&lt;/span&gt;&lt;br&gt;vibration&lt;br&gt;(Lent)" style="ellipse;whiteSpace=wrap;html=1;" parent="23" vertex="1">
                    <mxGeometry width="120" height="80" as="geometry"/>
                </mxCell>
                <mxCell id="25" value="(Front descendant)&lt;br&gt;Interrupt :&amp;nbsp; Interupteur" style="shape=process;whiteSpace=wrap;html=1;backgroundOutline=1;" parent="23" vertex="1">
                    <mxGeometry x="160" y="10" width="120" height="60" as="geometry"/>
                </mxCell>
                <mxCell id="26" style="edgeStyle=none;html=1;exitX=1;exitY=0.5;exitDx=0;exitDy=0;" parent="23" source="24" target="25" edge="1">
                    <mxGeometry relative="1" as="geometry"/>
                </mxCell>
                <mxCell id="27" style="edgeStyle=none;html=1;exitX=1;exitY=0.5;exitDx=0;exitDy=0;entryX=0;entryY=0.5;entryDx=0;entryDy=0;" parent="21" source="25" target="22" edge="1">
                    <mxGeometry relative="1" as="geometry"/>
                </mxCell>
                <mxCell id="28" value="" style="group" parent="1" vertex="1" connectable="0">
                    <mxGeometry x="20" y="740" width="440" height="80" as="geometry"/>
                </mxCell>
                <mxCell id="29" value="`confirm_fast`&lt;br&gt;Drapeau de &lt;br&gt;la cible" style="shape=parallelogram;perimeter=parallelogramPerimeter;whiteSpace=wrap;html=1;fixedSize=1;fontFamily=Helvetica;fontSize=12;fontColor=default;align=center;strokeColor=default;fillColor=default;" parent="28" vertex="1">
                    <mxGeometry x="320" y="10" width="120" height="60" as="geometry"/>
                </mxCell>
                <mxCell id="30" value="" style="group" parent="28" vertex="1" connectable="0">
                    <mxGeometry width="280" height="80" as="geometry"/>
                </mxCell>
                <mxCell id="31" value="Capteur de&lt;span style=&quot;color: rgba(0, 0, 0, 0); font-family: monospace; font-size: 0px; text-align: start;&quot;&gt;%3CmxGraphModel%3E%3Croot%3E%3CmxCell%20id%3D%220%22%2F%3E%3CmxCell%20id%3D%221%22%20parent%3D%220%22%2F%3E%3CmxCell%20id%3D%222%22%20value%3D%22%22%20style%3D%22group%22%20vertex%3D%221%22%20connectable%3D%220%22%20parent%3D%221%22%3E%3CmxGeometry%20x%3D%2230%22%20y%3D%22570%22%20width%3D%22440%22%20height%3D%2280%22%20as%3D%22geometry%22%2F%3E%3C%2FmxCell%3E%3CmxCell%20id%3D%223%22%20value%3D%22%60set_level%60%26lt%3Bbr%26gt%3BS%C3%A9lection%20du%20niveau%20de%20difficult%C3%A9%22%20style%3D%22rounded%3D0%3BwhiteSpace%3Dwrap%3Bhtml%3D1%3B%22%20vertex%3D%221%22%20parent%3D%222%22%3E%3CmxGeometry%20x%3D%22320%22%20y%3D%2210%22%20width%3D%22120%22%20height%3D%2260%22%20as%3D%22geometry%22%2F%3E%3C%2FmxCell%3E%3CmxCell%20id%3D%224%22%20value%3D%22%22%20style%3D%22group%22%20vertex%3D%221%22%20connectable%3D%220%22%20parent%3D%222%22%3E%3CmxGeometry%20width%3D%22280%22%20height%3D%2280%22%20as%3D%22geometry%22%2F%3E%3C%2FmxCell%3E%3CmxCell%20id%3D%225%22%20value%3D%22Bouton%22%20style%3D%22ellipse%3BwhiteSpace%3Dwrap%3Bhtml%3D1%3B%22%20vertex%3D%221%22%20parent%3D%224%22%3E%3CmxGeometry%20width%3D%22120%22%20height%3D%2280%22%20as%3D%22geometry%22%2F%3E%3C%2FmxCell%3E%3CmxCell%20id%3D%226%22%20value%3D%22Interrupt%20%3A%26amp%3Bnbsp%3B%20Bouton%20de%20niveau%22%20style%3D%22shape%3Dprocess%3BwhiteSpace%3Dwrap%3Bhtml%3D1%3BbackgroundOutline%3D1%3B%22%20vertex%3D%221%22%20parent%3D%224%22%3E%3CmxGeometry%20x%3D%22160%22%20y%3D%2210%22%20width%3D%22120%22%20height%3D%2260%22%20as%3D%22geometry%22%2F%3E%3C%2FmxCell%3E%3CmxCell%20id%3D%227%22%20style%3D%22edgeStyle%3Dnone%3Bhtml%3D1%3BexitX%3D1%3BexitY%3D0.5%3BexitDx%3D0%3BexitDy%3D0%3B%22%20edge%3D%221%22%20parent%3D%224%22%20source%3D%225%22%20target%3D%226%22%3E%3CmxGeometry%20relative%3D%221%22%20as%3D%22geometry%22%2F%3E%3C%2FmxCell%3E%3CmxCell%20id%3D%228%22%20style%3D%22edgeStyle%3Dnone%3Bhtml%3D1%3BexitX%3D1%3BexitY%3D0.5%3BexitDx%3D0%3BexitDy%3D0%3BentryX%3D0%3BentryY%3D0.5%3BentryDx%3D0%3BentryDy%3D0%3B%22%20edge%3D%221%22%20parent%3D%222%22%20source%3D%226%22%20target%3D%223%22%3E%3CmxGeometry%20relative%3D%221%22%20as%3D%22geometry%22%2F%3E%3C%2FmxCell%3E%3C%2Froot%3E%3C%2FmxGraphModel%3E&lt;/span&gt;&lt;br&gt;vibration&lt;br&gt;(Rapide)" style="ellipse;whiteSpace=wrap;html=1;" parent="30" vertex="1">
                    <mxGeometry width="120" height="80" as="geometry"/>
                </mxCell>
                <mxCell id="32" value="(Front descendant)&lt;br&gt;Interrupt :&amp;nbsp; Interupteur" style="shape=process;whiteSpace=wrap;html=1;backgroundOutline=1;" parent="30" vertex="1">
                    <mxGeometry x="160" y="10" width="120" height="60" as="geometry"/>
                </mxCell>
                <mxCell id="33" style="edgeStyle=none;html=1;exitX=1;exitY=0.5;exitDx=0;exitDy=0;" parent="30" source="31" target="32" edge="1">
                    <mxGeometry relative="1" as="geometry"/>
                </mxCell>
                <mxCell id="34" style="edgeStyle=none;html=1;exitX=1;exitY=0.5;exitDx=0;exitDy=0;entryX=0;entryY=0.5;entryDx=0;entryDy=0;" parent="28" source="32" target="29" edge="1">
                    <mxGeometry relative="1" as="geometry"/>
                </mxCell>
                <mxCell id="35" value="" style="group" parent="1" vertex="1" connectable="0">
                    <mxGeometry x="20" y="540" width="440" height="80" as="geometry"/>
                </mxCell>
                <mxCell id="36" value="`send _slow3`&lt;br&gt;Drapeau de &lt;br&gt;la cible" style="shape=parallelogram;perimeter=parallelogramPerimeter;whiteSpace=wrap;html=1;fixedSize=1;fontFamily=Helvetica;fontSize=12;fontColor=default;align=center;strokeColor=default;fillColor=default;" parent="35" vertex="1">
                    <mxGeometry x="320" y="10" width="120" height="60" as="geometry"/>
                </mxCell>
                <mxCell id="37" value="" style="group" parent="35" vertex="1" connectable="0">
                    <mxGeometry width="280" height="80" as="geometry"/>
                </mxCell>
                <mxCell id="38" value="Capteur de&lt;span style=&quot;color: rgba(0, 0, 0, 0); font-family: monospace; font-size: 0px; text-align: start;&quot;&gt;%3CmxGraphModel%3E%3Croot%3E%3CmxCell%20id%3D%220%22%2F%3E%3CmxCell%20id%3D%221%22%20parent%3D%220%22%2F%3E%3CmxCell%20id%3D%222%22%20value%3D%22%22%20style%3D%22group%22%20vertex%3D%221%22%20connectable%3D%220%22%20parent%3D%221%22%3E%3CmxGeometry%20x%3D%2230%22%20y%3D%22570%22%20width%3D%22440%22%20height%3D%2280%22%20as%3D%22geometry%22%2F%3E%3C%2FmxCell%3E%3CmxCell%20id%3D%223%22%20value%3D%22%60set_level%60%26lt%3Bbr%26gt%3BS%C3%A9lection%20du%20niveau%20de%20difficult%C3%A9%22%20style%3D%22rounded%3D0%3BwhiteSpace%3Dwrap%3Bhtml%3D1%3B%22%20vertex%3D%221%22%20parent%3D%222%22%3E%3CmxGeometry%20x%3D%22320%22%20y%3D%2210%22%20width%3D%22120%22%20height%3D%2260%22%20as%3D%22geometry%22%2F%3E%3C%2FmxCell%3E%3CmxCell%20id%3D%224%22%20value%3D%22%22%20style%3D%22group%22%20vertex%3D%221%22%20connectable%3D%220%22%20parent%3D%222%22%3E%3CmxGeometry%20width%3D%22280%22%20height%3D%2280%22%20as%3D%22geometry%22%2F%3E%3C%2FmxCell%3E%3CmxCell%20id%3D%225%22%20value%3D%22Bouton%22%20style%3D%22ellipse%3BwhiteSpace%3Dwrap%3Bhtml%3D1%3B%22%20vertex%3D%221%22%20parent%3D%224%22%3E%3CmxGeometry%20width%3D%22120%22%20height%3D%2280%22%20as%3D%22geometry%22%2F%3E%3C%2FmxCell%3E%3CmxCell%20id%3D%226%22%20value%3D%22Interrupt%20%3A%26amp%3Bnbsp%3B%20Bouton%20de%20niveau%22%20style%3D%22shape%3Dprocess%3BwhiteSpace%3Dwrap%3Bhtml%3D1%3BbackgroundOutline%3D1%3B%22%20vertex%3D%221%22%20parent%3D%224%22%3E%3CmxGeometry%20x%3D%22160%22%20y%3D%2210%22%20width%3D%22120%22%20height%3D%2260%22%20as%3D%22geometry%22%2F%3E%3C%2FmxCell%3E%3CmxCell%20id%3D%227%22%20style%3D%22edgeStyle%3Dnone%3Bhtml%3D1%3BexitX%3D1%3BexitY%3D0.5%3BexitDx%3D0%3BexitDy%3D0%3B%22%20edge%3D%221%22%20parent%3D%224%22%20source%3D%225%22%20target%3D%226%22%3E%3CmxGeometry%20relative%3D%221%22%20as%3D%22geometry%22%2F%3E%3C%2FmxCell%3E%3CmxCell%20id%3D%228%22%20style%3D%22edgeStyle%3Dnone%3Bhtml%3D1%3BexitX%3D1%3BexitY%3D0.5%3BexitDx%3D0%3BexitDy%3D0%3BentryX%3D0%3BentryY%3D0.5%3BentryDx%3D0%3BentryDy%3D0%3B%22%20edge%3D%221%22%20parent%3D%222%22%20source%3D%226%22%20target%3D%223%22%3E%3CmxGeometry%20relative%3D%221%22%20as%3D%22geometry%22%2F%3E%3C%2FmxCell%3E%3C%2Froot%3E%3C%2FmxGraphModel%3E&lt;/span&gt;&lt;br&gt;vibration&lt;br&gt;(Lent)" style="ellipse;whiteSpace=wrap;html=1;" parent="37" vertex="1">
                    <mxGeometry width="120" height="80" as="geometry"/>
                </mxCell>
                <mxCell id="39" value="(Front descendant)&lt;br&gt;Interrupt :&amp;nbsp; Interupteur" style="shape=process;whiteSpace=wrap;html=1;backgroundOutline=1;" parent="37" vertex="1">
                    <mxGeometry x="160" y="10" width="120" height="60" as="geometry"/>
                </mxCell>
                <mxCell id="40" style="edgeStyle=none;html=1;exitX=1;exitY=0.5;exitDx=0;exitDy=0;" parent="37" source="38" target="39" edge="1">
                    <mxGeometry relative="1" as="geometry"/>
                </mxCell>
                <mxCell id="41" style="edgeStyle=none;html=1;exitX=1;exitY=0.5;exitDx=0;exitDy=0;entryX=0;entryY=0.5;entryDx=0;entryDy=0;" parent="35" source="39" target="36" edge="1">
                    <mxGeometry relative="1" as="geometry"/>
                </mxCell>
                <mxCell id="42" value="" style="group" parent="1" vertex="1" connectable="0">
                    <mxGeometry x="20" y="640" width="440" height="80" as="geometry"/>
                </mxCell>
                <mxCell id="43" value="`send _slow4`&lt;br&gt;Drapeau de &lt;br&gt;la cible" style="shape=parallelogram;perimeter=parallelogramPerimeter;whiteSpace=wrap;html=1;fixedSize=1;fontFamily=Helvetica;fontSize=12;fontColor=default;align=center;strokeColor=default;fillColor=default;" parent="42" vertex="1">
                    <mxGeometry x="320" y="10" width="120" height="60" as="geometry"/>
                </mxCell>
                <mxCell id="44" value="" style="group" parent="42" vertex="1" connectable="0">
                    <mxGeometry width="280" height="80" as="geometry"/>
                </mxCell>
                <mxCell id="45" value="Capteur de&lt;span style=&quot;color: rgba(0, 0, 0, 0); font-family: monospace; font-size: 0px; text-align: start;&quot;&gt;%3CmxGraphModel%3E%3Croot%3E%3CmxCell%20id%3D%220%22%2F%3E%3CmxCell%20id%3D%221%22%20parent%3D%220%22%2F%3E%3CmxCell%20id%3D%222%22%20value%3D%22%22%20style%3D%22group%22%20vertex%3D%221%22%20connectable%3D%220%22%20parent%3D%221%22%3E%3CmxGeometry%20x%3D%2230%22%20y%3D%22570%22%20width%3D%22440%22%20height%3D%2280%22%20as%3D%22geometry%22%2F%3E%3C%2FmxCell%3E%3CmxCell%20id%3D%223%22%20value%3D%22%60set_level%60%26lt%3Bbr%26gt%3BS%C3%A9lection%20du%20niveau%20de%20difficult%C3%A9%22%20style%3D%22rounded%3D0%3BwhiteSpace%3Dwrap%3Bhtml%3D1%3B%22%20vertex%3D%221%22%20parent%3D%222%22%3E%3CmxGeometry%20x%3D%22320%22%20y%3D%2210%22%20width%3D%22120%22%20height%3D%2260%22%20as%3D%22geometry%22%2F%3E%3C%2FmxCell%3E%3CmxCell%20id%3D%224%22%20value%3D%22%22%20style%3D%22group%22%20vertex%3D%221%22%20connectable%3D%220%22%20parent%3D%222%22%3E%3CmxGeometry%20width%3D%22280%22%20height%3D%2280%22%20as%3D%22geometry%22%2F%3E%3C%2FmxCell%3E%3CmxCell%20id%3D%225%22%20value%3D%22Bouton%22%20style%3D%22ellipse%3BwhiteSpace%3Dwrap%3Bhtml%3D1%3B%22%20vertex%3D%221%22%20parent%3D%224%22%3E%3CmxGeometry%20width%3D%22120%22%20height%3D%2280%22%20as%3D%22geometry%22%2F%3E%3C%2FmxCell%3E%3CmxCell%20id%3D%226%22%20value%3D%22Interrupt%20%3A%26amp%3Bnbsp%3B%20Bouton%20de%20niveau%22%20style%3D%22shape%3Dprocess%3BwhiteSpace%3Dwrap%3Bhtml%3D1%3BbackgroundOutline%3D1%3B%22%20vertex%3D%221%22%20parent%3D%224%22%3E%3CmxGeometry%20x%3D%22160%22%20y%3D%2210%22%20width%3D%22120%22%20height%3D%2260%22%20as%3D%22geometry%22%2F%3E%3C%2FmxCell%3E%3CmxCell%20id%3D%227%22%20style%3D%22edgeStyle%3Dnone%3Bhtml%3D1%3BexitX%3D1%3BexitY%3D0.5%3BexitDx%3D0%3BexitDy%3D0%3B%22%20edge%3D%221%22%20parent%3D%224%22%20source%3D%225%22%20target%3D%226%22%3E%3CmxGeometry%20relative%3D%221%22%20as%3D%22geometry%22%2F%3E%3C%2FmxCell%3E%3CmxCell%20id%3D%228%22%20style%3D%22edgeStyle%3Dnone%3Bhtml%3D1%3BexitX%3D1%3BexitY%3D0.5%3BexitDx%3D0%3BexitDy%3D0%3BentryX%3D0%3BentryY%3D0.5%3BentryDx%3D0%3BentryDy%3D0%3B%22%20edge%3D%221%22%20parent%3D%222%22%20source%3D%226%22%20target%3D%223%22%3E%3CmxGeometry%20relative%3D%221%22%20as%3D%22geometry%22%2F%3E%3C%2FmxCell%3E%3C%2Froot%3E%3C%2FmxGraphModel%3E&lt;/span&gt;&lt;br&gt;vibration&lt;br&gt;(Lent)" style="ellipse;whiteSpace=wrap;html=1;" parent="44" vertex="1">
                    <mxGeometry width="120" height="80" as="geometry"/>
                </mxCell>
                <mxCell id="46" value="(Front descendant)&lt;br&gt;Interrupt :&amp;nbsp; Interupteur" style="shape=process;whiteSpace=wrap;html=1;backgroundOutline=1;" parent="44" vertex="1">
                    <mxGeometry x="160" y="10" width="120" height="60" as="geometry"/>
                </mxCell>
                <mxCell id="47" style="edgeStyle=none;html=1;exitX=1;exitY=0.5;exitDx=0;exitDy=0;" parent="44" source="45" target="46" edge="1">
                    <mxGeometry relative="1" as="geometry"/>
                </mxCell>
                <mxCell id="48" style="edgeStyle=none;html=1;exitX=1;exitY=0.5;exitDx=0;exitDy=0;entryX=0;entryY=0.5;entryDx=0;entryDy=0;" parent="42" source="46" target="43" edge="1">
                    <mxGeometry relative="1" as="geometry"/>
                </mxCell>
                <mxCell id="49" value="" style="group" parent="1" vertex="1" connectable="0">
                    <mxGeometry x="20" y="840" width="440" height="80" as="geometry"/>
                </mxCell>
                <mxCell id="50" value="`set_level`&lt;br&gt;Sélection du niveau de difficulté" style="shape=parallelogram;perimeter=parallelogramPerimeter;whiteSpace=wrap;html=1;fixedSize=1;fontFamily=Helvetica;fontSize=12;fontColor=default;align=center;strokeColor=default;fillColor=default;" parent="49" vertex="1">
                    <mxGeometry x="320" y="10" width="120" height="60" as="geometry"/>
                </mxCell>
                <mxCell id="51" value="" style="group" parent="49" vertex="1" connectable="0">
                    <mxGeometry width="280" height="80" as="geometry"/>
                </mxCell>
                <mxCell id="52" value="Bouton" style="ellipse;whiteSpace=wrap;html=1;" parent="51" vertex="1">
                    <mxGeometry width="120" height="80" as="geometry"/>
                </mxCell>
                <mxCell id="53" value="Interrupt :&amp;nbsp; Bouton de niveau" style="shape=process;whiteSpace=wrap;html=1;backgroundOutline=1;" parent="51" vertex="1">
                    <mxGeometry x="160" y="10" width="120" height="60" as="geometry"/>
                </mxCell>
                <mxCell id="54" style="edgeStyle=none;html=1;exitX=1;exitY=0.5;exitDx=0;exitDy=0;" parent="51" source="52" target="53" edge="1">
                    <mxGeometry relative="1" as="geometry"/>
                </mxCell>
                <mxCell id="55" style="edgeStyle=none;html=1;exitX=1;exitY=0.5;exitDx=0;exitDy=0;entryX=0;entryY=0.5;entryDx=0;entryDy=0;" parent="49" source="53" target="50" edge="1">
                    <mxGeometry relative="1" as="geometry"/>
                </mxCell>
                <mxCell id="cnifLTquJRFYCQ1Qak6K-227" style="edgeStyle=none;html=1;exitX=1;exitY=0.5;exitDx=0;exitDy=0;" parent="1" source="56" edge="1">
                    <mxGeometry relative="1" as="geometry">
                        <mxPoint x="580" y="289.91666666666674" as="targetPoint"/>
                    </mxGeometry>
                </mxCell>
                <mxCell id="56" value="`turn_false`&lt;br&gt;Désactive les drapeaux" style="shape=parallelogram;perimeter=parallelogramPerimeter;whiteSpace=wrap;html=1;fixedSize=1;shadow=0;fontFamily=Helvetica;fontSize=12;fontColor=default;align=center;strokeColor=default;fillColor=default;" parent="1" vertex="1">
                    <mxGeometry x="340" y="260" width="120" height="60" as="geometry"/>
                </mxCell>
                <mxCell id="85" value="" style="group" parent="1" vertex="1" connectable="0">
                    <mxGeometry x="580" y="20" width="970" height="900" as="geometry"/>
                </mxCell>
                <mxCell id="74" value="" style="rounded=0;whiteSpace=wrap;html=1;shadow=0;glass=0;sketch=0;" parent="85" vertex="1">
                    <mxGeometry width="970" height="900" as="geometry"/>
                </mxCell>
                <mxCell id="93" style="edgeStyle=none;html=1;exitX=0.5;exitY=1;exitDx=0;exitDy=0;entryX=0;entryY=0.5;entryDx=0;entryDy=0;" parent="85" edge="1">
                    <mxGeometry relative="1" as="geometry">
                        <mxPoint x="194" y="324" as="sourcePoint"/>
                        <Array as="points">
                            <mxPoint x="194" y="384"/>
                        </Array>
                    </mxGeometry>
                </mxCell>
                <mxCell id="94" style="edgeStyle=none;html=1;exitX=0.5;exitY=1;exitDx=0;exitDy=0;entryX=0;entryY=0.5;entryDx=0;entryDy=0;" parent="85" edge="1">
                    <mxGeometry relative="1" as="geometry">
                        <mxPoint x="194" y="324" as="sourcePoint"/>
                        <Array as="points">
                            <mxPoint x="194" y="516"/>
                            <mxPoint x="194" y="600"/>
                        </Array>
                    </mxGeometry>
                </mxCell>
                <mxCell id="95" style="edgeStyle=none;html=1;exitX=0.5;exitY=1;exitDx=0;exitDy=0;entryX=0;entryY=0.5;entryDx=0;entryDy=0;" parent="85" edge="1">
                    <mxGeometry relative="1" as="geometry">
                        <mxPoint x="194" y="324" as="sourcePoint"/>
                        <Array as="points">
                            <mxPoint x="194" y="648"/>
                            <mxPoint x="194" y="816"/>
                        </Array>
                    </mxGeometry>
                </mxCell>
                <mxCell id="98" value="While&lt;br&gt;True" style="rhombus;whiteSpace=wrap;html=1;rounded=0;shadow=0;glass=0;sketch=0;" parent="85" vertex="1">
                    <mxGeometry x="35" y="220" width="80" height="80" as="geometry"/>
                </mxCell>
                <mxCell id="222" style="edgeStyle=none;html=1;exitX=1;exitY=0.5;exitDx=0;exitDy=0;entryX=0;entryY=0.5;entryDx=0;entryDy=0;" edge="1" parent="85" source="99" target="100">
                    <mxGeometry relative="1" as="geometry"/>
                </mxCell>
                <mxCell id="223" value="Non" style="edgeLabel;html=1;align=center;verticalAlign=middle;resizable=0;points=[];" vertex="1" connectable="0" parent="222">
                    <mxGeometry x="-0.7606" relative="1" as="geometry">
                        <mxPoint x="-9" as="offset"/>
                    </mxGeometry>
                </mxCell>
                <mxCell id="99" value="Niveau 1" style="rhombus;whiteSpace=wrap;html=1;rounded=0;shadow=0;glass=0;sketch=0;" parent="85" vertex="1">
                    <mxGeometry x="135" y="280" width="80" height="80" as="geometry"/>
                </mxCell>
                <mxCell id="113" style="edgeStyle=none;html=1;exitX=1;exitY=0.5;exitDx=0;exitDy=0;entryX=0.5;entryY=0;entryDx=0;entryDy=0;" parent="85" source="98" target="99" edge="1">
                    <mxGeometry relative="1" as="geometry">
                        <Array as="points">
                            <mxPoint x="175" y="260"/>
                        </Array>
                    </mxGeometry>
                </mxCell>
                <mxCell id="Wnqbz38SHcaIz3GCqSuQ-230" value="Oui" style="edgeLabel;html=1;align=center;verticalAlign=middle;resizable=0;points=[];" vertex="1" connectable="0" parent="113">
                    <mxGeometry x="-0.5828" y="5" relative="1" as="geometry">
                        <mxPoint x="-2" y="5" as="offset"/>
                    </mxGeometry>
                </mxCell>
                <mxCell id="224" style="edgeStyle=none;html=1;exitX=1;exitY=0.5;exitDx=0;exitDy=0;entryX=0;entryY=0.5;entryDx=0;entryDy=0;" edge="1" parent="85" source="100" target="101">
                    <mxGeometry relative="1" as="geometry"/>
                </mxCell>
                <mxCell id="225" value="Non" style="edgeLabel;html=1;align=center;verticalAlign=middle;resizable=0;points=[];" vertex="1" connectable="0" parent="224">
                    <mxGeometry x="-0.7468" y="-2" relative="1" as="geometry">
                        <mxPoint x="-10" y="-2" as="offset"/>
                    </mxGeometry>
                </mxCell>
                <mxCell id="100" value="Niveau 2" style="rhombus;whiteSpace=wrap;html=1;rounded=0;shadow=0;glass=0;sketch=0;" parent="85" vertex="1">
                    <mxGeometry x="415" y="280" width="80" height="80" as="geometry"/>
                </mxCell>
                <mxCell id="229" style="edgeStyle=none;html=1;exitX=1;exitY=0.5;exitDx=0;exitDy=0;entryX=0.5;entryY=1;entryDx=0;entryDy=0;" edge="1" parent="85" source="101" target="98">
                    <mxGeometry relative="1" as="geometry">
                        <Array as="points">
                            <mxPoint x="960" y="320"/>
                            <mxPoint x="960" y="840"/>
                            <mxPoint x="75" y="840"/>
                        </Array>
                    </mxGeometry>
                </mxCell>
                <mxCell id="230" value="Non" style="edgeLabel;html=1;align=center;verticalAlign=middle;resizable=0;points=[];" vertex="1" connectable="0" parent="229">
                    <mxGeometry x="-0.9898" y="2" relative="1" as="geometry">
                        <mxPoint x="4" y="2" as="offset"/>
                    </mxGeometry>
                </mxCell>
                <mxCell id="101" value="Niveau 3" style="rhombus;whiteSpace=wrap;html=1;rounded=0;shadow=0;glass=0;sketch=0;" parent="85" vertex="1">
                    <mxGeometry x="695" y="280" width="80" height="80" as="geometry"/>
                </mxCell>
                <mxCell id="108" value="Sélection Niveau DEL" style="rounded=1;whiteSpace=wrap;html=1;shadow=0;glass=0;sketch=0;" parent="85" vertex="1">
                    <mxGeometry x="115" y="380" width="120" height="60" as="geometry"/>
                </mxCell>
                <mxCell id="114" style="edgeStyle=none;html=1;exitX=0.5;exitY=1;exitDx=0;exitDy=0;entryX=0.5;entryY=0;entryDx=0;entryDy=0;" parent="85" source="99" target="108" edge="1">
                    <mxGeometry relative="1" as="geometry"/>
                </mxCell>
                <mxCell id="136" value="Oui" style="edgeLabel;html=1;align=center;verticalAlign=middle;resizable=0;points=[];" parent="114" vertex="1" connectable="0">
                    <mxGeometry x="-0.4678" y="1" relative="1" as="geometry">
                        <mxPoint x="-1" y="-5" as="offset"/>
                    </mxGeometry>
                </mxCell>
                <mxCell id="109" value="Sélection Niveau DEL" style="rounded=1;whiteSpace=wrap;html=1;shadow=0;glass=0;sketch=0;" parent="85" vertex="1">
                    <mxGeometry x="395" y="380" width="120" height="60" as="geometry"/>
                </mxCell>
                <mxCell id="115" style="edgeStyle=none;html=1;exitX=0.5;exitY=1;exitDx=0;exitDy=0;entryX=0.5;entryY=0;entryDx=0;entryDy=0;" parent="85" source="100" target="109" edge="1">
                    <mxGeometry relative="1" as="geometry"/>
                </mxCell>
                <mxCell id="226" value="Oui" style="edgeLabel;html=1;align=center;verticalAlign=middle;resizable=0;points=[];" vertex="1" connectable="0" parent="115">
                    <mxGeometry x="-0.8471" y="1" relative="1" as="geometry">
                        <mxPoint x="-1" y="-2" as="offset"/>
                    </mxGeometry>
                </mxCell>
                <mxCell id="110" value="Sélection Niveau DEL" style="rounded=1;whiteSpace=wrap;html=1;shadow=0;glass=0;sketch=0;" parent="85" vertex="1">
                    <mxGeometry x="675" y="380" width="120" height="60" as="geometry"/>
                </mxCell>
                <mxCell id="116" style="edgeStyle=none;html=1;exitX=0.5;exitY=1;exitDx=0;exitDy=0;entryX=0.5;entryY=0;entryDx=0;entryDy=0;" parent="85" source="101" target="110" edge="1">
                    <mxGeometry relative="1" as="geometry"/>
                </mxCell>
                <mxCell id="227" value="Oui" style="edgeLabel;html=1;align=center;verticalAlign=middle;resizable=0;points=[];" vertex="1" connectable="0" parent="116">
                    <mxGeometry x="-0.5857" y="-2" relative="1" as="geometry">
                        <mxPoint x="2" y="-4" as="offset"/>
                    </mxGeometry>
                </mxCell>
                <mxCell id="117" value="5 points ?" style="rhombus;whiteSpace=wrap;html=1;rounded=0;shadow=0;glass=0;sketch=0;" parent="85" vertex="1">
                    <mxGeometry x="135" y="460" width="80" height="80" as="geometry"/>
                </mxCell>
                <mxCell id="126" style="edgeStyle=none;html=1;exitX=0.5;exitY=1;exitDx=0;exitDy=0;entryX=0.5;entryY=0;entryDx=0;entryDy=0;" parent="85" source="108" target="117" edge="1">
                    <mxGeometry relative="1" as="geometry"/>
                </mxCell>
                <mxCell id="204" style="edgeStyle=none;html=1;exitX=1;exitY=0.5;exitDx=0;exitDy=0;entryX=0.5;entryY=1;entryDx=0;entryDy=0;" parent="85" source="120" target="98" edge="1">
                    <mxGeometry relative="1" as="geometry">
                        <Array as="points">
                            <mxPoint x="395" y="550"/>
                            <mxPoint x="395" y="760"/>
                            <mxPoint x="75" y="760"/>
                        </Array>
                    </mxGeometry>
                </mxCell>
                <mxCell id="120" value="Envoi niveau &amp;amp; points" style="rounded=1;whiteSpace=wrap;html=1;shadow=0;glass=0;sketch=0;" parent="85" vertex="1">
                    <mxGeometry x="255" y="520" width="120" height="60" as="geometry"/>
                </mxCell>
                <mxCell id="130" style="edgeStyle=none;html=1;exitX=1;exitY=0.5;exitDx=0;exitDy=0;entryX=0;entryY=0.5;entryDx=0;entryDy=0;" parent="85" source="117" target="120" edge="1">
                    <mxGeometry relative="1" as="geometry">
                        <Array as="points">
                            <mxPoint x="235" y="500"/>
                            <mxPoint x="235" y="550"/>
                        </Array>
                    </mxGeometry>
                </mxCell>
                <mxCell id="133" value="Oui&lt;br&gt;" style="edgeLabel;html=1;align=center;verticalAlign=middle;resizable=0;points=[];" parent="130" vertex="1" connectable="0">
                    <mxGeometry x="-0.38" relative="1" as="geometry">
                        <mxPoint x="-10" y="-8" as="offset"/>
                    </mxGeometry>
                </mxCell>
                <mxCell id="131" style="edgeStyle=none;html=1;exitX=1;exitY=0.5;exitDx=0;exitDy=0;entryX=0;entryY=0.5;entryDx=0;entryDy=0;" parent="85" source="123" target="120" edge="1">
                    <mxGeometry relative="1" as="geometry">
                        <Array as="points">
                            <mxPoint x="235" y="600"/>
                            <mxPoint x="235" y="550"/>
                        </Array>
                    </mxGeometry>
                </mxCell>
                <mxCell id="134" value="Oui&lt;br&gt;" style="edgeLabel;html=1;align=center;verticalAlign=middle;resizable=0;points=[];" parent="131" vertex="1" connectable="0">
                    <mxGeometry x="-0.6504" y="2" relative="1" as="geometry">
                        <mxPoint x="-6" y="2" as="offset"/>
                    </mxGeometry>
                </mxCell>
                <mxCell id="123" value="0 point ?" style="rhombus;whiteSpace=wrap;html=1;rounded=0;shadow=0;glass=0;sketch=0;" parent="85" vertex="1">
                    <mxGeometry x="135" y="560" width="80" height="80" as="geometry"/>
                </mxCell>
                <mxCell id="127" style="edgeStyle=none;html=1;exitX=0.5;exitY=1;exitDx=0;exitDy=0;entryX=0.5;entryY=0;entryDx=0;entryDy=0;" parent="85" source="117" target="123" edge="1">
                    <mxGeometry relative="1" as="geometry"/>
                </mxCell>
                <mxCell id="135" value="Non" style="edgeLabel;html=1;align=center;verticalAlign=middle;resizable=0;points=[];" parent="127" vertex="1" connectable="0">
                    <mxGeometry x="-0.3661" y="-2" relative="1" as="geometry">
                        <mxPoint as="offset"/>
                    </mxGeometry>
                </mxCell>
                <mxCell id="205" style="edgeStyle=none;html=1;exitX=1;exitY=0.5;exitDx=0;exitDy=0;entryX=0.5;entryY=1;entryDx=0;entryDy=0;" parent="85" source="125" target="98" edge="1">
                    <mxGeometry relative="1" as="geometry">
                        <Array as="points">
                            <mxPoint x="395" y="670"/>
                            <mxPoint x="395" y="760"/>
                            <mxPoint x="75" y="760"/>
                        </Array>
                    </mxGeometry>
                </mxCell>
                <mxCell id="125" value="Envoi attente" style="rounded=1;whiteSpace=wrap;html=1;shadow=0;glass=0;sketch=0;" parent="85" vertex="1">
                    <mxGeometry x="255" y="640" width="120" height="60" as="geometry"/>
                </mxCell>
                <mxCell id="137" style="edgeStyle=none;html=1;exitX=0.5;exitY=1;exitDx=0;exitDy=0;entryX=0;entryY=0.5;entryDx=0;entryDy=0;" parent="85" source="123" target="125" edge="1">
                    <mxGeometry relative="1" as="geometry">
                        <Array as="points">
                            <mxPoint x="175" y="670"/>
                        </Array>
                    </mxGeometry>
                </mxCell>
                <mxCell id="138" value="Non" style="edgeLabel;html=1;align=center;verticalAlign=middle;resizable=0;points=[];" parent="137" vertex="1" connectable="0">
                    <mxGeometry x="-0.84" relative="1" as="geometry">
                        <mxPoint as="offset"/>
                    </mxGeometry>
                </mxCell>
                <mxCell id="143" value="5 points ?" style="rhombus;whiteSpace=wrap;html=1;rounded=0;shadow=0;glass=0;sketch=0;" parent="85" vertex="1">
                    <mxGeometry x="415" y="470" width="80" height="80" as="geometry"/>
                </mxCell>
                <mxCell id="151" style="edgeStyle=none;html=1;exitX=0.5;exitY=1;exitDx=0;exitDy=0;entryX=0.5;entryY=0;entryDx=0;entryDy=0;" parent="85" source="109" target="143" edge="1">
                    <mxGeometry relative="1" as="geometry"/>
                </mxCell>
                <mxCell id="206" style="edgeStyle=none;html=1;exitX=1;exitY=0.5;exitDx=0;exitDy=0;entryX=0.5;entryY=1;entryDx=0;entryDy=0;" parent="85" source="144" target="98" edge="1">
                    <mxGeometry relative="1" as="geometry">
                        <Array as="points">
                            <mxPoint x="675" y="610"/>
                            <mxPoint x="675" y="840"/>
                            <mxPoint x="75" y="840"/>
                        </Array>
                    </mxGeometry>
                </mxCell>
                <mxCell id="144" value="Envoi niveau &amp;amp; points" style="rounded=1;whiteSpace=wrap;html=1;shadow=0;glass=0;sketch=0;" parent="85" vertex="1">
                    <mxGeometry x="535" y="580" width="120" height="60" as="geometry"/>
                </mxCell>
                <mxCell id="156" style="edgeStyle=none;html=1;exitX=1;exitY=0.5;exitDx=0;exitDy=0;entryX=0;entryY=0.5;entryDx=0;entryDy=0;" parent="85" source="143" target="144" edge="1">
                    <mxGeometry relative="1" as="geometry">
                        <Array as="points">
                            <mxPoint x="515" y="510"/>
                            <mxPoint x="515" y="610"/>
                        </Array>
                    </mxGeometry>
                </mxCell>
                <mxCell id="167" value="Oui" style="edgeLabel;html=1;align=center;verticalAlign=middle;resizable=0;points=[];" parent="156" vertex="1" connectable="0">
                    <mxGeometry x="-0.6295" relative="1" as="geometry">
                        <mxPoint x="-10" y="-6" as="offset"/>
                    </mxGeometry>
                </mxCell>
                <mxCell id="157" style="edgeStyle=none;html=1;exitX=1;exitY=0.5;exitDx=0;exitDy=0;" parent="85" source="149" edge="1">
                    <mxGeometry relative="1" as="geometry">
                        <mxPoint x="495.1428571428571" y="609.8571428571429" as="targetPoint"/>
                    </mxGeometry>
                </mxCell>
                <mxCell id="158" style="edgeStyle=none;html=1;exitX=1;exitY=0.5;exitDx=0;exitDy=0;entryX=0;entryY=0.5;entryDx=0;entryDy=0;" parent="85" source="149" target="144" edge="1">
                    <mxGeometry relative="1" as="geometry"/>
                </mxCell>
                <mxCell id="166" value="Oui" style="edgeLabel;html=1;align=center;verticalAlign=middle;resizable=0;points=[];" parent="158" vertex="1" connectable="0">
                    <mxGeometry x="-0.3631" relative="1" as="geometry">
                        <mxPoint x="-3" as="offset"/>
                    </mxGeometry>
                </mxCell>
                <mxCell id="149" value="0 point ?" style="rhombus;whiteSpace=wrap;html=1;rounded=0;shadow=0;glass=0;sketch=0;" parent="85" vertex="1">
                    <mxGeometry x="415" y="570" width="80" height="80" as="geometry"/>
                </mxCell>
                <mxCell id="139" style="edgeStyle=none;html=1;exitX=0.5;exitY=1;exitDx=0;exitDy=0;entryX=0.5;entryY=0;entryDx=0;entryDy=0;" parent="85" source="143" target="149" edge="1">
                    <mxGeometry relative="1" as="geometry"/>
                </mxCell>
                <mxCell id="140" value="Non" style="edgeLabel;html=1;align=center;verticalAlign=middle;resizable=0;points=[];" parent="139" vertex="1" connectable="0">
                    <mxGeometry x="-0.3661" y="-2" relative="1" as="geometry">
                        <mxPoint as="offset"/>
                    </mxGeometry>
                </mxCell>
                <mxCell id="207" style="edgeStyle=none;html=1;exitX=1;exitY=0.5;exitDx=0;exitDy=0;entryX=0.5;entryY=1;entryDx=0;entryDy=0;" parent="85" source="150" target="98" edge="1">
                    <mxGeometry relative="1" as="geometry">
                        <Array as="points">
                            <mxPoint x="675" y="780"/>
                            <mxPoint x="675" y="840"/>
                            <mxPoint x="75" y="840"/>
                        </Array>
                    </mxGeometry>
                </mxCell>
                <mxCell id="150" value="Envoi attente" style="rounded=1;whiteSpace=wrap;html=1;shadow=0;glass=0;sketch=0;" parent="85" vertex="1">
                    <mxGeometry x="535" y="750" width="120" height="60" as="geometry"/>
                </mxCell>
                <mxCell id="159" style="edgeStyle=none;html=1;exitX=1;exitY=0.5;exitDx=0;exitDy=0;entryX=0;entryY=0.5;entryDx=0;entryDy=0;" parent="85" source="153" target="144" edge="1">
                    <mxGeometry relative="1" as="geometry">
                        <Array as="points">
                            <mxPoint x="515" y="710"/>
                            <mxPoint x="515" y="610"/>
                        </Array>
                    </mxGeometry>
                </mxCell>
                <mxCell id="165" value="Oui" style="edgeLabel;html=1;align=center;verticalAlign=middle;resizable=0;points=[];" parent="159" vertex="1" connectable="0">
                    <mxGeometry x="-0.6276" relative="1" as="geometry">
                        <mxPoint x="-10" y="6" as="offset"/>
                    </mxGeometry>
                </mxCell>
                <mxCell id="161" style="edgeStyle=none;html=1;exitX=0.5;exitY=1;exitDx=0;exitDy=0;entryX=0;entryY=0.5;entryDx=0;entryDy=0;" parent="85" source="153" target="150" edge="1">
                    <mxGeometry relative="1" as="geometry">
                        <Array as="points">
                            <mxPoint x="455" y="780"/>
                        </Array>
                    </mxGeometry>
                </mxCell>
                <mxCell id="163" value="Non" style="edgeLabel;html=1;align=center;verticalAlign=middle;resizable=0;points=[];" parent="161" vertex="1" connectable="0">
                    <mxGeometry x="-0.8696" y="2" relative="1" as="geometry">
                        <mxPoint as="offset"/>
                    </mxGeometry>
                </mxCell>
                <mxCell id="153" value="-1 point ?" style="rhombus;whiteSpace=wrap;html=1;rounded=0;shadow=0;glass=0;sketch=0;" parent="85" vertex="1">
                    <mxGeometry x="415" y="670" width="80" height="80" as="geometry"/>
                </mxCell>
                <mxCell id="154" style="edgeStyle=none;html=1;exitX=0.5;exitY=1;exitDx=0;exitDy=0;entryX=0.5;entryY=0;entryDx=0;entryDy=0;" parent="85" source="149" target="153" edge="1">
                    <mxGeometry relative="1" as="geometry"/>
                </mxCell>
                <mxCell id="155" value="Non" style="edgeLabel;html=1;align=center;verticalAlign=middle;resizable=0;points=[];" parent="154" vertex="1" connectable="0">
                    <mxGeometry x="-0.552" relative="1" as="geometry">
                        <mxPoint as="offset"/>
                    </mxGeometry>
                </mxCell>
                <mxCell id="172" value="5 points ?" style="rhombus;whiteSpace=wrap;html=1;rounded=0;shadow=0;glass=0;sketch=0;" parent="85" vertex="1">
                    <mxGeometry x="695" y="470" width="80" height="80" as="geometry"/>
                </mxCell>
                <mxCell id="203" style="edgeStyle=none;html=1;exitX=0.5;exitY=1;exitDx=0;exitDy=0;entryX=0.5;entryY=0;entryDx=0;entryDy=0;" parent="85" source="110" target="172" edge="1">
                    <mxGeometry relative="1" as="geometry"/>
                </mxCell>
                <mxCell id="208" style="edgeStyle=none;html=1;exitX=1;exitY=0.5;exitDx=0;exitDy=0;entryX=0.5;entryY=1;entryDx=0;entryDy=0;" parent="85" source="173" target="98" edge="1">
                    <mxGeometry relative="1" as="geometry">
                        <Array as="points">
                            <mxPoint x="960" y="610"/>
                            <mxPoint x="960" y="840"/>
                            <mxPoint x="75" y="840"/>
                        </Array>
                    </mxGeometry>
                </mxCell>
                <mxCell id="173" value="Envoi niveau &amp;amp; points" style="rounded=1;whiteSpace=wrap;html=1;shadow=0;glass=0;sketch=0;" parent="85" vertex="1">
                    <mxGeometry x="815" y="580" width="120" height="60" as="geometry"/>
                </mxCell>
                <mxCell id="170" style="edgeStyle=none;html=1;exitX=1;exitY=0.5;exitDx=0;exitDy=0;entryX=0;entryY=0.5;entryDx=0;entryDy=0;" parent="85" source="172" target="173" edge="1">
                    <mxGeometry relative="1" as="geometry">
                        <Array as="points">
                            <mxPoint x="795" y="510"/>
                            <mxPoint x="795" y="610"/>
                        </Array>
                    </mxGeometry>
                </mxCell>
                <mxCell id="171" value="Oui" style="edgeLabel;html=1;align=center;verticalAlign=middle;resizable=0;points=[];" parent="170" vertex="1" connectable="0">
                    <mxGeometry x="-0.6295" relative="1" as="geometry">
                        <mxPoint x="-10" y="-6" as="offset"/>
                    </mxGeometry>
                </mxCell>
                <mxCell id="176" style="edgeStyle=none;html=1;exitX=1;exitY=0.5;exitDx=0;exitDy=0;" parent="85" source="179" edge="1">
                    <mxGeometry relative="1" as="geometry">
                        <mxPoint x="775.1428571428564" y="609.8571428571429" as="targetPoint"/>
                    </mxGeometry>
                </mxCell>
                <mxCell id="177" style="edgeStyle=none;html=1;exitX=1;exitY=0.5;exitDx=0;exitDy=0;entryX=0;entryY=0.5;entryDx=0;entryDy=0;" parent="85" source="179" target="173" edge="1">
                    <mxGeometry relative="1" as="geometry"/>
                </mxCell>
                <mxCell id="178" value="Oui" style="edgeLabel;html=1;align=center;verticalAlign=middle;resizable=0;points=[];" parent="177" vertex="1" connectable="0">
                    <mxGeometry x="-0.3631" relative="1" as="geometry">
                        <mxPoint x="-3" as="offset"/>
                    </mxGeometry>
                </mxCell>
                <mxCell id="179" value="-1 point ?" style="rhombus;whiteSpace=wrap;html=1;rounded=0;shadow=0;glass=0;sketch=0;" parent="85" vertex="1">
                    <mxGeometry x="695" y="570" width="80" height="80" as="geometry"/>
                </mxCell>
                <mxCell id="168" style="edgeStyle=none;html=1;exitX=0.5;exitY=1;exitDx=0;exitDy=0;entryX=0.5;entryY=0;entryDx=0;entryDy=0;" parent="85" source="172" target="179" edge="1">
                    <mxGeometry relative="1" as="geometry"/>
                </mxCell>
                <mxCell id="169" value="Non" style="edgeLabel;html=1;align=center;verticalAlign=middle;resizable=0;points=[];" parent="168" vertex="1" connectable="0">
                    <mxGeometry x="-0.3661" y="-2" relative="1" as="geometry">
                        <mxPoint as="offset"/>
                    </mxGeometry>
                </mxCell>
                <mxCell id="209" style="edgeStyle=none;html=1;exitX=1;exitY=0.5;exitDx=0;exitDy=0;entryX=0.5;entryY=1;entryDx=0;entryDy=0;" parent="85" source="180" target="98" edge="1">
                    <mxGeometry relative="1" as="geometry">
                        <Array as="points">
                            <mxPoint x="960" y="780"/>
                            <mxPoint x="960" y="840"/>
                            <mxPoint x="75" y="840"/>
                        </Array>
                    </mxGeometry>
                </mxCell>
                <mxCell id="180" value="Envoi attente" style="rounded=1;whiteSpace=wrap;html=1;shadow=0;glass=0;sketch=0;" parent="85" vertex="1">
                    <mxGeometry x="815" y="750" width="120" height="60" as="geometry"/>
                </mxCell>
                <mxCell id="181" style="edgeStyle=none;html=1;exitX=1;exitY=0.5;exitDx=0;exitDy=0;entryX=0;entryY=0.5;entryDx=0;entryDy=0;" parent="85" source="185" target="173" edge="1">
                    <mxGeometry relative="1" as="geometry">
                        <Array as="points">
                            <mxPoint x="795" y="710"/>
                            <mxPoint x="795" y="610"/>
                        </Array>
                    </mxGeometry>
                </mxCell>
                <mxCell id="182" value="Oui" style="edgeLabel;html=1;align=center;verticalAlign=middle;resizable=0;points=[];" parent="181" vertex="1" connectable="0">
                    <mxGeometry x="-0.6276" relative="1" as="geometry">
                        <mxPoint x="-10" y="6" as="offset"/>
                    </mxGeometry>
                </mxCell>
                <mxCell id="183" style="edgeStyle=none;html=1;exitX=0.5;exitY=1;exitDx=0;exitDy=0;entryX=0;entryY=0.5;entryDx=0;entryDy=0;" parent="85" source="185" target="180" edge="1">
                    <mxGeometry relative="1" as="geometry">
                        <Array as="points">
                            <mxPoint x="735" y="780"/>
                        </Array>
                    </mxGeometry>
                </mxCell>
                <mxCell id="184" value="Non" style="edgeLabel;html=1;align=center;verticalAlign=middle;resizable=0;points=[];" parent="183" vertex="1" connectable="0">
                    <mxGeometry x="-0.8696" y="2" relative="1" as="geometry">
                        <mxPoint as="offset"/>
                    </mxGeometry>
                </mxCell>
                <mxCell id="185" value="-3 points ?" style="rhombus;whiteSpace=wrap;html=1;rounded=0;shadow=0;glass=0;sketch=0;" parent="85" vertex="1">
                    <mxGeometry x="695" y="670" width="80" height="80" as="geometry"/>
                </mxCell>
                <mxCell id="174" style="edgeStyle=none;html=1;exitX=0.5;exitY=1;exitDx=0;exitDy=0;entryX=0.5;entryY=0;entryDx=0;entryDy=0;" parent="85" source="179" target="185" edge="1">
                    <mxGeometry relative="1" as="geometry"/>
                </mxCell>
                <mxCell id="175" value="Non" style="edgeLabel;html=1;align=center;verticalAlign=middle;resizable=0;points=[];" parent="174" vertex="1" connectable="0">
                    <mxGeometry x="-0.552" relative="1" as="geometry">
                        <mxPoint as="offset"/>
                    </mxGeometry>
                </mxCell>
                <mxCell id="97" value="Initialisation&lt;br&gt;Interrupts" style="rounded=1;whiteSpace=wrap;html=1;shadow=0;glass=0;sketch=0;" parent="85" vertex="1">
                    <mxGeometry x="15" y="140" width="120" height="60" as="geometry"/>
                </mxCell>
                <mxCell id="106" style="edgeStyle=none;html=1;exitX=0.5;exitY=1;exitDx=0;exitDy=0;entryX=0.5;entryY=0;entryDx=0;entryDy=0;" parent="85" source="97" target="98" edge="1">
                    <mxGeometry relative="1" as="geometry"/>
                </mxCell>
                <mxCell id="96" value="Initialisation&lt;br&gt;System ,DELs , NRF" style="rounded=1;whiteSpace=wrap;html=1;shadow=0;glass=0;sketch=0;" parent="85" vertex="1">
                    <mxGeometry x="15" y="60" width="120" height="60" as="geometry"/>
                </mxCell>
                <mxCell id="105" style="edgeStyle=none;html=1;exitX=0.5;exitY=1;exitDx=0;exitDy=0;entryX=0.5;entryY=0;entryDx=0;entryDy=0;" parent="85" source="96" target="97" edge="1">
                    <mxGeometry relative="1" as="geometry"/>
                </mxCell>
                <mxCell id="cnifLTquJRFYCQ1Qak6K-220" value="Main" style="text;html=1;strokeColor=#3700CC;fillColor=#6a00ff;align=center;verticalAlign=middle;whiteSpace=wrap;rounded=0;fontColor=#ffffff;" parent="85" vertex="1">
                    <mxGeometry x="455" width="60" height="30" as="geometry"/>
                </mxCell>
                <mxCell id="210" value="DEL verte" style="ellipse;whiteSpace=wrap;html=1;rounded=0;shadow=0;glass=0;sketch=0;" parent="1" vertex="1">
                    <mxGeometry x="600" y="960" width="120" height="80" as="geometry"/>
                </mxCell>
                <mxCell id="216" style="edgeStyle=none;html=1;exitX=0.5;exitY=0;exitDx=0;exitDy=0;entryX=0.5;entryY=0;entryDx=0;entryDy=0;" parent="1" target="211" edge="1">
                    <mxGeometry relative="1" as="geometry">
                        <mxPoint x="820.3103448275863" y="920" as="sourcePoint"/>
                    </mxGeometry>
                </mxCell>
                <mxCell id="211" value="DEL jaune" style="ellipse;whiteSpace=wrap;html=1;rounded=0;shadow=0;glass=0;sketch=0;" parent="1" vertex="1">
                    <mxGeometry x="760" y="960" width="120" height="80" as="geometry"/>
                </mxCell>
                <mxCell id="217" style="edgeStyle=none;html=1;exitX=0.5;exitY=0;exitDx=0;exitDy=0;entryX=0.5;entryY=0;entryDx=0;entryDy=0;" parent="1" target="212" edge="1">
                    <mxGeometry relative="1" as="geometry">
                        <mxPoint x="980.3103448275863" y="920" as="sourcePoint"/>
                    </mxGeometry>
                </mxCell>
                <mxCell id="212" value="DEL rouge" style="ellipse;whiteSpace=wrap;html=1;rounded=0;shadow=0;glass=0;sketch=0;" parent="1" vertex="1">
                    <mxGeometry x="920" y="960" width="120" height="80" as="geometry"/>
                </mxCell>
                <mxCell id="213" value="Onde ISM sans-fil" style="ellipse;whiteSpace=wrap;html=1;rounded=0;shadow=0;glass=0;sketch=0;" parent="1" vertex="1">
                    <mxGeometry x="1280" y="1000" width="120" height="80" as="geometry"/>
                </mxCell>
                <mxCell id="218" style="edgeStyle=none;html=1;exitX=0.5;exitY=0;exitDx=0;exitDy=0;entryX=0.5;entryY=0;entryDx=0;entryDy=0;" parent="1" target="214" edge="1">
                    <mxGeometry relative="1" as="geometry">
                        <mxPoint x="1180.3103448275863" y="920" as="sourcePoint"/>
                    </mxGeometry>
                </mxCell>
                <mxCell id="219" value="SPI" style="edgeLabel;html=1;align=center;verticalAlign=middle;resizable=0;points=[];" parent="218" vertex="1" connectable="0">
                    <mxGeometry x="-0.5303" y="3" relative="1" as="geometry">
                        <mxPoint x="-3" y="11" as="offset"/>
                    </mxGeometry>
                </mxCell>
                <mxCell id="220" style="edgeStyle=none;html=1;exitX=0.5;exitY=1;exitDx=0;exitDy=0;entryX=0;entryY=0.5;entryDx=0;entryDy=0;" parent="1" source="214" target="213" edge="1">
                    <mxGeometry relative="1" as="geometry">
                        <Array as="points">
                            <mxPoint x="1180" y="1040"/>
                        </Array>
                    </mxGeometry>
                </mxCell>
                <mxCell id="214" value="Module NRF" style="rounded=0;whiteSpace=wrap;html=1;shadow=0;glass=0;sketch=0;" parent="1" vertex="1">
                    <mxGeometry x="1120" y="960" width="120" height="60" as="geometry"/>
                </mxCell>
                <mxCell id="215" style="edgeStyle=none;html=1;exitX=0.083;exitY=1;exitDx=0;exitDy=0;entryX=0.5;entryY=0;entryDx=0;entryDy=0;exitPerimeter=0;" parent="1" source="74" target="210" edge="1">
                    <mxGeometry relative="1" as="geometry"/>
                </mxCell>
                <mxCell id="9a6Le65KCHdaUr0kRzH7-225" style="edgeStyle=none;html=1;exitX=1;exitY=0.5;exitDx=0;exitDy=0;" parent="1" source="5" edge="1">
                    <mxGeometry relative="1" as="geometry">
                        <mxPoint x="580.0000000000001" y="80.00000000000006" as="targetPoint"/>
                    </mxGeometry>
                </mxCell>
                <mxCell id="nRwTZtLyJB1S-OJT_L9X-220" value="" style="group" parent="1" vertex="1" connectable="0">
                    <mxGeometry x="180" y="50" width="280" height="180" as="geometry"/>
                </mxCell>
                <mxCell id="2" value="`init_nrf`&lt;br&gt;Initialisation du NRF24L01" style="shape=parallelogram;perimeter=parallelogramPerimeter;whiteSpace=wrap;html=1;fixedSize=1;fontFamily=Helvetica;fontSize=12;fontColor=default;align=center;strokeColor=default;fillColor=default;" parent="nRwTZtLyJB1S-OJT_L9X-220" vertex="1">
                    <mxGeometry x="160" y="120" width="120" height="60" as="geometry"/>
                </mxCell>
                <mxCell id="9a6Le65KCHdaUr0kRzH7-221" style="edgeStyle=none;html=1;exitX=0.5;exitY=1;exitDx=0;exitDy=0;entryX=0.5;entryY=0;entryDx=0;entryDy=0;" parent="nRwTZtLyJB1S-OJT_L9X-220" source="3" target="2" edge="1">
                    <mxGeometry relative="1" as="geometry">
                        <Array as="points">
                            <mxPoint x="60" y="90"/>
                            <mxPoint x="220" y="90"/>
                        </Array>
                    </mxGeometry>
                </mxCell>
                <mxCell id="3" value="`writing`&amp;nbsp;&lt;br&gt;Écriture SPI d'un tableau indéfinie" style="shape=parallelogram;perimeter=parallelogramPerimeter;whiteSpace=wrap;html=1;fixedSize=1;fontFamily=Helvetica;fontSize=12;fontColor=default;align=center;strokeColor=default;fillColor=default;" parent="nRwTZtLyJB1S-OJT_L9X-220" vertex="1">
                    <mxGeometry width="120" height="60" as="geometry"/>
                </mxCell>
                <mxCell id="9a6Le65KCHdaUr0kRzH7-223" style="edgeStyle=none;html=1;exitX=0.5;exitY=1;exitDx=0;exitDy=0;entryX=0.5;entryY=0;entryDx=0;entryDy=0;" parent="nRwTZtLyJB1S-OJT_L9X-220" source="5" target="2" edge="1">
                    <mxGeometry relative="1" as="geometry"/>
                </mxCell>
                <mxCell id="5" value="`writing_2`&amp;nbsp;&lt;br&gt;Écriture SPI d'une commande et &lt;br&gt;d'une donnée" style="shape=parallelogram;perimeter=parallelogramPerimeter;whiteSpace=wrap;html=1;fixedSize=1;fontFamily=Helvetica;fontSize=12;fontColor=default;align=center;strokeColor=default;fillColor=default;" parent="nRwTZtLyJB1S-OJT_L9X-220" vertex="1">
                    <mxGeometry x="160" width="120" height="60" as="geometry"/>
                </mxCell>
                <mxCell id="cnifLTquJRFYCQ1Qak6K-221" style="edgeStyle=none;html=1;exitX=1;exitY=0.5;exitDx=0;exitDy=0;entryX=0.001;entryY=0.955;entryDx=0;entryDy=0;entryPerimeter=0;" parent="1" source="50" target="74" edge="1">
                    <mxGeometry relative="1" as="geometry"/>
                </mxCell>
                <mxCell id="cnifLTquJRFYCQ1Qak6K-222" style="edgeStyle=none;html=1;exitX=1;exitY=0.5;exitDx=0;exitDy=0;entryX=-0.001;entryY=0.844;entryDx=0;entryDy=0;entryPerimeter=0;" parent="1" source="29" target="74" edge="1">
                    <mxGeometry relative="1" as="geometry"/>
                </mxCell>
                <mxCell id="cnifLTquJRFYCQ1Qak6K-223" style="edgeStyle=none;html=1;exitX=1;exitY=0.5;exitDx=0;exitDy=0;entryX=0;entryY=0.732;entryDx=0;entryDy=0;entryPerimeter=0;" parent="1" source="43" target="74" edge="1">
                    <mxGeometry relative="1" as="geometry"/>
                </mxCell>
                <mxCell id="cnifLTquJRFYCQ1Qak6K-224" style="edgeStyle=none;html=1;exitX=1;exitY=0.5;exitDx=0;exitDy=0;entryX=-0.001;entryY=0.621;entryDx=0;entryDy=0;entryPerimeter=0;" parent="1" source="36" target="74" edge="1">
                    <mxGeometry relative="1" as="geometry"/>
                </mxCell>
                <mxCell id="cnifLTquJRFYCQ1Qak6K-225" style="edgeStyle=none;html=1;exitX=1;exitY=0.5;exitDx=0;exitDy=0;" parent="1" source="22" edge="1">
                    <mxGeometry relative="1" as="geometry">
                        <mxPoint x="580" y="479.91666666666674" as="targetPoint"/>
                    </mxGeometry>
                </mxCell>
                <mxCell id="cnifLTquJRFYCQ1Qak6K-226" style="edgeStyle=none;html=1;exitX=1;exitY=0.5;exitDx=0;exitDy=0;entryX=0;entryY=0.4;entryDx=0;entryDy=0;entryPerimeter=0;" parent="1" source="4" target="74" edge="1">
                    <mxGeometry relative="1" as="geometry"/>
                </mxCell>
            </root>
        </mxGraphModel>
    </diagram>
</mxfile>